<?xml version="1.0" standalone="no"?>
 <!DOCTYPE svg PUBLIC "-//W3C//DTD SVG 1.1//EN" 
 "http://www.w3.org/Graphics/SVG/1.1/DTD/svg11.dtd"> 
<svg xmlns="http://www.w3.org/2000/svg" version="1.1" 
    width="29.7002cm" height="21.0007cm" viewBox="0 0 116930 82680 ">
<title>SVG Picture created as Millikan-Edge_Cuts.svg date 2019/09/08 14:03:05 </title>
  <desc>Picture generated by PCBNEW </desc>
<g style="fill:#000000; fill-opacity:1;stroke:#000000; stroke-opacity:1;
stroke-linecap:round; stroke-linejoin:round; "
 transform="translate(0 0) scale(1 1)">
</g>
<g style="fill:#000000; fill-opacity:0.0; 
stroke:#000000; stroke-width:-0.000393701; stroke-opacity:1; 
stroke-linecap:round; stroke-linejoin:round;">
</g>
<g style="fill:#000000; fill-opacity:0.0; 
stroke:#000000; stroke-width:19.685; stroke-opacity:1; 
stroke-linecap:round; stroke-linejoin:round;">
<circle cx="104500" cy="40500" r="656.168" /> 
<path d="M103515 40500
L105484 40500
" />
<path d="M104500 39515
L104500 41484
" />
<circle cx="78500" cy="70500" r="656.168" /> 
<path d="M77515 70500
L79484 70500
" />
<path d="M78500 69515
L78500 71484
" />
<circle cx="49500" cy="64500" r="656.168" /> 
<path d="M48515 64500
L50484 64500
" />
<path d="M49500 63515
L49500 65484
" />
<circle cx="33000" cy="42500" r="656.168" /> 
<path d="M32015 42500
L33984 42500
" />
<path d="M33000 41515
L33000 43484
" />
<circle cx="42500" cy="33000" r="656.168" /> 
<path d="M41515 33000
L43484 33000
" />
<path d="M42500 32015
L42500 33984
" />
<circle cx="90000" cy="1500" r="656.168" /> 
<path d="M89015 1500
L90984 1500
" />
<path d="M90000 515
L90000 2484
" />
<circle cx="42500" cy="1500" r="656.168" /> 
<path d="M41515 1500
L43484 1500
" />
<path d="M42500 515
L42500 2484
" />
<circle cx="90000" cy="33000" r="656.168" /> 
<path d="M89015 33000
L90984 33000
" />
<path d="M90000 32015
L90000 33984
" />
<circle cx="104500" cy="70500" r="656.168" /> 
<path d="M103515 70500
L105484 70500
" />
<path d="M104500 69515
L104500 71484
" />
<circle cx="78500" cy="40500" r="656.168" /> 
<path d="M77515 40500
L79484 40500
" />
<path d="M78500 39515
L78500 41484
" />
<circle cx="33000" cy="64500" r="656.168" /> 
<path d="M32015 64500
L33984 64500
" />
<path d="M33000 63515
L33000 65484
" />
<circle cx="49500" cy="42500" r="656.168" /> 
<path d="M48515 42500
L50484 42500
" />
<path d="M49500 41515
L49500 43484
" />
<path d="M90000 33000
L90000 1500
" />
<path d="M42500 33000
L90000 33000
" />
<path d="M42500 1500
L42500 33000
" />
<path d="M90000 1500
L42500 1500
" />
<path d="M104500 40500
L104500 70500
" />
<path d="M78500 40500
L104500 40500
" />
<path d="M78500 70500
L78500 40500
" />
<path d="M104500 70500
L78500 70500
" />
<path d="M33000 64500
L33000 42500
" />
<path d="M49500 64500
L33000 64500
" />
<path d="M49500 42500
L49500 64500
" />
<path d="M33000 42500
L49500 42500
" />
<g >
</g>
<g >
</g>
<g >
</g>
<g >
</g>
<g >
</g>
<g >
</g>
<g >
</g>
<g >
</g>
<g >
</g>
<g >
</g>
<g >
</g>
<g >
</g>
<g >
</g>
<g >
</g>
<g >
</g>
<g >
</g>
<g >
</g>
<g >
</g>
<g >
</g>
<g >
</g>
<g >
</g>
<g >
</g>
<g >
</g>
<g >
</g>
<g >
</g>
<g >
</g>
<g >
</g>
<g >
</g>
<g >
</g>
<g >
</g>
<g >
</g>
<g >
</g>
<g >
</g>
<g >
</g>
<g >
</g>
<g >
</g>
<g >
</g>
<g >
</g>
<g >
</g>
<g >
</g>
<g >
</g>
<g >
</g>
<g >
</g>
<g >
</g>
<g >
</g>
<g >
</g>
<g >
</g>
<g >
</g>
<g >
</g>
<g >
</g>
<g >
</g>
<g >
</g>
<g >
</g>
<g >
</g>
<g >
</g>
<g >
</g>
<g >
</g>
<g >
</g>
<g >
</g>
<g >
</g>
<g >
</g>
<g >
</g>
<g >
</g>
<g >
</g>
<g >
</g>
<g >
</g>
<g >
</g>
<g >
</g>
<g >
</g>
<g >
</g>
<g >
</g>
<g >
</g>
<g >
</g>
<g >
</g>
<g >
</g>
<g >
</g>
<g >
</g>
<g >
</g>
</g> 
</svg>
