<?xml version="1.0" standalone="no"?>
 <!DOCTYPE svg PUBLIC "-//W3C//DTD SVG 1.1//EN" 
 "http://www.w3.org/Graphics/SVG/1.1/DTD/svg11.dtd"> 
<svg xmlns="http://www.w3.org/2000/svg" version="1.1" 
    width="29.7002cm" height="21.0007cm" viewBox="0 0 116930 82680 ">
<title>SVG Picture created as Millikan-B_SilkS.svg date 2019/09/08 14:03:04 </title>
  <desc>Picture generated by PCBNEW </desc>
<g style="fill:#000000; fill-opacity:1;stroke:#000000; stroke-opacity:1;
stroke-linecap:round; stroke-linejoin:round; "
 transform="translate(0 0) scale(1 1)">
</g>
<g style="fill:#000000; fill-opacity:0.0; 
stroke:#000000; stroke-width:-0.000393701; stroke-opacity:1; 
stroke-linecap:round; stroke-linejoin:round;">
</g>
<g style="fill:#000000; fill-opacity:0.0; 
stroke:#000000; stroke-width:19.685; stroke-opacity:1; 
stroke-linecap:round; stroke-linejoin:round;">
<circle cx="104500" cy="40500" r="656.168" /> 
<path d="M103515 40500
L105484 40500
" />
<path d="M104500 39515
L104500 41484
" />
<circle cx="78500" cy="70500" r="656.168" /> 
<path d="M77515 70500
L79484 70500
" />
<path d="M78500 69515
L78500 71484
" />
<circle cx="49500" cy="64500" r="656.168" /> 
<path d="M48515 64500
L50484 64500
" />
<path d="M49500 63515
L49500 65484
" />
<circle cx="33000" cy="42500" r="656.168" /> 
<path d="M32015 42500
L33984 42500
" />
<path d="M33000 41515
L33000 43484
" />
<circle cx="42500" cy="33000" r="656.168" /> 
<path d="M41515 33000
L43484 33000
" />
<path d="M42500 32015
L42500 33984
" />
<circle cx="90000" cy="1500" r="656.168" /> 
<path d="M89015 1500
L90984 1500
" />
<path d="M90000 515
L90000 2484
" />
<circle cx="42500" cy="1500" r="656.168" /> 
<path d="M41515 1500
L43484 1500
" />
<path d="M42500 515
L42500 2484
" />
<circle cx="90000" cy="33000" r="656.168" /> 
<path d="M89015 33000
L90984 33000
" />
<path d="M90000 32015
L90000 33984
" />
<circle cx="104500" cy="70500" r="656.168" /> 
<path d="M103515 70500
L105484 70500
" />
<path d="M104500 69515
L104500 71484
" />
<circle cx="78500" cy="40500" r="656.168" /> 
<path d="M77515 40500
L79484 40500
" />
<path d="M78500 39515
L78500 41484
" />
<circle cx="33000" cy="64500" r="656.168" /> 
<path d="M32015 64500
L33984 64500
" />
<path d="M33000 63515
L33000 65484
" />
<circle cx="49500" cy="42500" r="656.168" /> 
<path d="M48515 42500
L50484 42500
" />
<path d="M49500 41515
L49500 43484
" />
<path d="M90000 33000
L90000 1500
" />
<path d="M42500 33000
L90000 33000
" />
<path d="M42500 1500
L42500 33000
" />
<path d="M90000 1500
L42500 1500
" />
<path d="M104500 40500
L104500 70500
" />
<path d="M78500 40500
L104500 40500
" />
<path d="M78500 70500
L78500 40500
" />
<path d="M104500 70500
L78500 70500
" />
<path d="M33000 64500
L33000 42500
" />
<path d="M49500 64500
L33000 64500
" />
<path d="M49500 42500
L49500 64500
" />
<path d="M33000 42500
L49500 42500
" />
</g>
<g style="fill:#000000; fill-opacity:0.0; 
stroke:#000000; stroke-width:47.2441; stroke-opacity:1; 
stroke-linecap:round; stroke-linejoin:round;">
<path d="M60311 23153
L60311 24846
" />
<path d="M60311 24846
L57437 24846
" />
<path d="M60311 23153
L57437 23153
" />
<path d="M64311 23153
L61437 23153
" />
<path d="M64311 24846
L61437 24846
" />
<path d="M64311 23153
L64311 24846
" />
<path d="M56688 14346
L59562 14346
" />
<path d="M56688 12653
L59562 12653
" />
<path d="M56688 14346
L56688 12653
" />
<path d="M64311 19653
L64311 21346
" />
<path d="M64311 21346
L61437 21346
" />
<path d="M64311 19653
L61437 19653
" />
<path d="M60751 14346
L63625 14346
" />
<path d="M60751 12653
L63625 12653
" />
<path d="M60751 14346
L60751 12653
" />
<path d="M60311 19653
L60311 21346
" />
<path d="M60311 21346
L57437 21346
" />
<path d="M60311 19653
L57437 19653
" />
<path d="M56688 17846
L59562 17846
" />
<path d="M56688 16153
L59562 16153
" />
<path d="M56688 17846
L56688 16153
" />
<path d="M52688 17846
L52688 16153
" />
<path d="M52688 16153
L55562 16153
" />
<path d="M52688 17846
L55562 17846
" />
<path d="M56311 23153
L53437 23153
" />
<path d="M56311 24846
L53437 24846
" />
<path d="M56311 23153
L56311 24846
" />
<path d="M52688 14346
L52688 12653
" />
<path d="M52688 12653
L55562 12653
" />
<path d="M52688 14346
L55562 14346
" />
<path d="M56248 19653
L56248 21346
" />
<path d="M56248 21346
L53374 21346
" />
<path d="M56248 19653
L53374 19653
" />
<path d="M60751 17846
L63625 17846
" />
<path d="M60751 16153
L63625 16153
" />
<path d="M60751 17846
L60751 16153
" />
<path d="M82622 50799
L82255 50799
" />
<path d="M81377 50799
L81744 50799
" />
<path d="M81377 50799
L81377 49555
" />
<path d="M82622 50799
L82622 50224
" />
<path d="M82622 64299
L82622 63724
" />
<path d="M81377 64299
L81377 63055
" />
<path d="M81377 64299
L81744 64299
" />
<path d="M82622 64299
L82255 64299
" />
<path d="M39799 50877
L39224 50877
" />
<path d="M39799 52122
L38555 52122
" />
<path d="M39799 52122
L39799 51755
" />
<path d="M39799 50877
L39799 51244
" />
<path d="M100377 46700
L100744 46700
" />
<path d="M101622 46700
L101255 46700
" />
<path d="M101622 46700
L101622 47944
" />
<path d="M100377 46700
L100377 47275
" />
<path d="M100251 60110
L100251 60685
" />
<path d="M101496 60110
L101496 61354
" />
<path d="M101496 60110
L101129 60110
" />
<path d="M100251 60110
L100618 60110
" />
<path d="M81803 48767
L82196 48767
" />
<path d="M82196 48232
L81803 48232
" />
<path d="M81870 62267
L82263 62267
" />
<path d="M82263 61732
L81870 61732
" />
<path d="M39232 53803
L39232 54196
" />
<path d="M39767 54196
L39767 53803
" />
<path d="M100870 49267
L101263 49267
" />
<path d="M101263 48732
L100870 48732
" />
<path d="M100803 62767
L101196 62767
" />
<path d="M101196 62232
L100803 62232
" />
<g >
</g>
<g >
</g>
<g >
</g>
<g >
</g>
<g >
</g>
<g >
</g>
<g >
</g>
<g >
</g>
<g >
</g>
<g >
</g>
<g >
</g>
<g >
</g>
<g >
</g>
<g >
</g>
<g >
</g>
<g >
</g>
<g >
</g>
<g >
</g>
<g >
</g>
<g >
</g>
<g >
</g>
<g >
</g>
<g >
</g>
<g >
</g>
<g >
</g>
<g >
</g>
<g >
</g>
<g >
</g>
<g >
</g>
<g >
</g>
<g >
</g>
<g >
</g>
<g >
</g>
<g >
</g>
<g >
</g>
<g >
</g>
<g >
</g>
<g >
</g>
<g >
</g>
<g >
</g>
<g >
</g>
<g >
</g>
<g >
</g>
<g >
</g>
<g >
</g>
<g >
</g>
<g >
</g>
<g >
</g>
<g >
</g>
<g >
</g>
<g >
</g>
<g >
</g>
<g >
</g>
<g >
</g>
<g >
</g>
<g >
</g>
<g >
</g>
<g >
</g>
<g >
</g>
<g >
</g>
<g >
</g>
<g >
</g>
<g >
</g>
<g >
</g>
<g >
</g>
<g >
</g>
<g >
</g>
<g >
</g>
<g >
</g>
<g >
</g>
<g >
</g>
<g >
</g>
<g >
</g>
<g >
</g>
<g >
</g>
<g >
</g>
<g >
</g>
</g>
<g style="fill:#000000; fill-opacity:0.0; 
stroke:#000000; stroke-width:47.2441; stroke-opacity:1; 
stroke-linecap:round; stroke-linejoin:round;">
</g>
<g style="fill:#000000; fill-opacity:0.0; 
stroke:#000000; stroke-width:59.0551; stroke-opacity:1; 
stroke-linecap:round; stroke-linejoin:round;">
<path d="M58790 22997
L58790 22603
L58696 22603
L58640 22622
L58603 22659
L58584 22697
L58565 22772
L58565 22828
L58584 22903
L58603 22940
L58640 22978
L58696 22997
L58790 22997
" />
<path d="M58190 22997
L58415 22997
" />
<path d="M58303 22997
L58303 22603
L58340 22659
L58378 22697
L58415 22715
" />
<path d="M62790 22997
L62790 22603
L62696 22603
L62640 22622
L62603 22659
L62584 22697
L62565 22772
L62565 22828
L62584 22903
L62603 22940
L62640 22978
L62696 22997
L62790 22997
" />
<path d="M62415 22640
L62396 22622
L62359 22603
L62265 22603
L62228 22622
L62209 22640
L62190 22678
L62190 22715
L62209 22772
L62434 22997
L62190 22997
" />
<path d="M58790 14859
L58790 14465
L58696 14465
L58640 14484
L58603 14521
L58584 14559
L58565 14634
L58565 14690
L58584 14765
L58603 14802
L58640 14840
L58696 14859
L58790 14859
" />
<path d="M58434 14465
L58190 14465
L58321 14615
L58265 14615
L58228 14634
L58209 14652
L58190 14690
L58190 14784
L58209 14821
L58228 14840
L58265 14859
L58378 14859
L58415 14840
L58434 14821
" />
<path d="M62790 19497
L62790 19103
L62696 19103
L62640 19122
L62603 19159
L62584 19197
L62565 19272
L62565 19328
L62584 19403
L62603 19440
L62640 19478
L62696 19497
L62790 19497
" />
<path d="M62228 19234
L62228 19497
" />
<path d="M62321 19084
L62415 19365
L62171 19365
" />
<path d="M62853 14859
L62853 14465
L62759 14465
L62703 14484
L62666 14521
L62647 14559
L62628 14634
L62628 14690
L62647 14765
L62666 14802
L62703 14840
L62759 14859
L62853 14859
" />
<path d="M62272 14465
L62459 14465
L62478 14652
L62459 14634
L62422 14615
L62328 14615
L62291 14634
L62272 14652
L62253 14690
L62253 14784
L62272 14821
L62291 14840
L62328 14859
L62422 14859
L62459 14840
L62478 14821
" />
<path d="M58790 19497
L58790 19103
L58696 19103
L58640 19122
L58603 19159
L58584 19197
L58565 19272
L58565 19328
L58584 19403
L58603 19440
L58640 19478
L58696 19497
L58790 19497
" />
<path d="M58228 19103
L58303 19103
L58340 19122
L58359 19140
L58396 19197
L58415 19272
L58415 19422
L58396 19459
L58378 19478
L58340 19497
L58265 19497
L58228 19478
L58209 19459
L58190 19422
L58190 19328
L58209 19290
L58228 19272
L58265 19253
L58340 19253
L58378 19272
L58396 19290
L58415 19328
" />
<path d="M58790 18359
L58790 17965
L58696 17965
L58640 17984
L58603 18021
L58584 18059
L58565 18134
L58565 18190
L58584 18265
L58603 18302
L58640 18340
L58696 18359
L58790 18359
" />
<path d="M58434 17965
L58171 17965
L58340 18359
" />
<path d="M54790 18359
L54790 17965
L54696 17965
L54640 17984
L54603 18021
L54584 18059
L54565 18134
L54565 18190
L54584 18265
L54603 18302
L54640 18340
L54696 18359
L54790 18359
" />
<path d="M54340 18134
L54378 18115
L54396 18096
L54415 18059
L54415 18040
L54396 18002
L54378 17984
L54340 17965
L54265 17965
L54228 17984
L54209 18002
L54190 18040
L54190 18059
L54209 18096
L54228 18115
L54265 18134
L54340 18134
L54378 18152
L54396 18171
L54415 18209
L54415 18284
L54396 18321
L54378 18340
L54340 18359
L54265 18359
L54228 18340
L54209 18321
L54190 18284
L54190 18209
L54209 18171
L54228 18152
L54265 18134
" />
<path d="M54790 22997
L54790 22603
L54696 22603
L54640 22622
L54603 22659
L54584 22697
L54565 22772
L54565 22828
L54584 22903
L54603 22940
L54640 22978
L54696 22997
L54790 22997
" />
<path d="M54378 22997
L54303 22997
L54265 22978
L54246 22959
L54209 22903
L54190 22828
L54190 22678
L54209 22640
L54228 22622
L54265 22603
L54340 22603
L54378 22622
L54396 22640
L54415 22678
L54415 22772
L54396 22809
L54378 22828
L54340 22847
L54265 22847
L54228 22828
L54209 22809
L54190 22772
" />
<path d="M54978 14859
L54978 14465
L54884 14465
L54828 14484
L54790 14521
L54771 14559
L54753 14634
L54753 14690
L54771 14765
L54790 14802
L54828 14840
L54884 14859
L54978 14859
" />
<path d="M54378 14859
L54603 14859
" />
<path d="M54490 14859
L54490 14465
L54528 14521
L54565 14559
L54603 14577
" />
<path d="M54134 14465
L54096 14465
L54059 14484
L54040 14502
L54021 14540
L54003 14615
L54003 14709
L54021 14784
L54040 14821
L54059 14840
L54096 14859
L54134 14859
L54171 14840
L54190 14821
L54209 14784
L54228 14709
L54228 14615
L54209 14540
L54190 14502
L54171 14484
L54134 14465
" />
<path d="M54915 19497
L54915 19103
L54821 19103
L54765 19122
L54727 19159
L54708 19197
L54690 19272
L54690 19328
L54708 19403
L54727 19440
L54765 19478
L54821 19497
L54915 19497
" />
<path d="M54315 19497
L54540 19497
" />
<path d="M54427 19497
L54427 19103
L54465 19159
L54502 19197
L54540 19215
" />
<path d="M53940 19497
L54165 19497
" />
<path d="M54052 19497
L54052 19103
L54090 19159
L54127 19197
L54165 19215
" />
<path d="M63041 18359
L63041 17965
L62947 17965
L62891 17984
L62853 18021
L62834 18059
L62816 18134
L62816 18190
L62834 18265
L62853 18302
L62891 18340
L62947 18359
L63041 18359
" />
<path d="M62441 18359
L62666 18359
" />
<path d="M62553 18359
L62553 17965
L62591 18021
L62628 18059
L62666 18077
" />
<path d="M62291 18002
L62272 17984
L62234 17965
L62141 17965
L62103 17984
L62084 18002
L62066 18040
L62066 18077
L62084 18134
L62309 18359
L62066 18359
" />
<path d="M81231 50462
L81212 50425
L81175 50387
L81118 50331
L81100 50293
L81100 50256
" />
<path d="M81193 50275
L81175 50237
L81137 50200
L81062 50181
L80931 50181
L80856 50200
L80818 50237
L80800 50275
L80800 50350
L80818 50387
L80856 50425
L80931 50443
L81062 50443
L81137 50425
L81175 50387
L81193 50350
L81193 50275
" />
<path d="M81193 50818
L81193 50593
" />
<path d="M81193 50706
L80800 50706
L80856 50668
L80893 50631
L80912 50593
" />
<path d="M81231 63962
L81212 63925
L81175 63887
L81118 63831
L81100 63793
L81100 63756
" />
<path d="M81193 63775
L81175 63737
L81137 63700
L81062 63681
L80931 63681
L80856 63700
L80818 63737
L80800 63775
L80800 63850
L80818 63887
L80856 63925
L80931 63943
L81062 63943
L81137 63925
L81175 63887
L81193 63850
L81193 63775
" />
<path d="M80837 64093
L80818 64112
L80800 64149
L80800 64243
L80818 64281
L80837 64299
L80875 64318
L80912 64318
L80968 64299
L81193 64074
L81193 64318
" />
<path d="M39537 52699
L39574 52681
L39612 52643
L39668 52587
L39706 52568
L39743 52568
" />
<path d="M39724 52662
L39762 52643
L39799 52606
L39818 52531
L39818 52399
L39799 52324
L39762 52287
L39724 52268
L39649 52268
L39612 52287
L39574 52324
L39556 52399
L39556 52531
L39574 52606
L39612 52643
L39649 52662
L39724 52662
" />
<path d="M39425 52268
L39181 52268
L39312 52418
L39256 52418
L39218 52437
L39200 52456
L39181 52493
L39181 52587
L39200 52624
L39218 52643
L39256 52662
L39368 52662
L39406 52643
L39425 52624
" />
<path d="M102199 46962
L102181 46925
L102143 46887
L102087 46831
L102068 46793
L102068 46756
" />
<path d="M102162 46775
L102143 46737
L102106 46700
L102031 46681
L101899 46681
L101824 46700
L101787 46737
L101768 46775
L101768 46850
L101787 46887
L101824 46925
L101899 46943
L102031 46943
L102106 46925
L102143 46887
L102162 46850
L102162 46775
" />
<path d="M101899 47281
L102162 47281
" />
<path d="M101749 47187
L102031 47093
L102031 47337
" />
<path d="M102073 60371
L102055 60334
L102017 60296
L101961 60240
L101942 60203
L101942 60165
" />
<path d="M102036 60184
L102017 60146
L101980 60109
L101905 60090
L101773 60090
L101698 60109
L101661 60146
L101642 60184
L101642 60259
L101661 60296
L101698 60334
L101773 60353
L101905 60353
L101980 60334
L102017 60296
L102036 60259
L102036 60184
" />
<path d="M101642 60709
L101642 60521
L101830 60503
L101811 60521
L101792 60559
L101792 60653
L101811 60690
L101830 60709
L101867 60728
L101961 60728
L101998 60709
L102017 60690
L102036 60653
L102036 60559
L102017 60521
L101998 60503
" />
<path d="M82065 49248
L82196 49061
" />
<path d="M82290 49248
L82290 48855
L82140 48855
L82103 48874
L82084 48892
L82065 48930
L82065 48986
L82084 49023
L82103 49042
L82140 49061
L82290 49061
" />
<path d="M81690 49248
L81915 49248
" />
<path d="M81803 49248
L81803 48855
L81840 48911
L81878 48949
L81915 48967
" />
<path d="M82132 62748
L82263 62561
" />
<path d="M82357 62748
L82357 62355
L82207 62355
L82170 62374
L82151 62392
L82132 62430
L82132 62486
L82151 62523
L82170 62542
L82207 62561
L82357 62561
" />
<path d="M81982 62392
L81963 62374
L81926 62355
L81832 62355
L81795 62374
L81776 62392
L81757 62430
L81757 62467
L81776 62523
L82001 62748
L81757 62748
" />
<path d="M39107 53934
L38919 53803
" />
<path d="M39107 53709
L38713 53709
L38713 53859
L38732 53896
L38751 53915
L38788 53934
L38844 53934
L38882 53915
L38901 53896
L38919 53859
L38919 53709
" />
<path d="M38713 54290
L38713 54103
L38901 54084
L38882 54103
L38863 54140
L38863 54234
L38882 54271
L38901 54290
L38938 54309
L39032 54309
L39069 54290
L39088 54271
L39107 54234
L39107 54140
L39088 54103
L39069 54084
" />
<path d="M101132 48607
L101263 48419
" />
<path d="M101357 48607
L101357 48213
L101207 48213
L101170 48232
L101151 48251
L101132 48288
L101132 48344
L101151 48382
L101170 48401
L101207 48419
L101357 48419
" />
<path d="M101001 48213
L100738 48213
L100907 48607
" />
<path d="M101065 62107
L101196 61919
" />
<path d="M101290 62107
L101290 61713
L101140 61713
L101103 61732
L101084 61751
L101065 61788
L101065 61844
L101084 61882
L101103 61901
L101140 61919
L101290 61919
" />
<path d="M100840 61882
L100878 61863
L100896 61844
L100915 61807
L100915 61788
L100896 61751
L100878 61732
L100840 61713
L100765 61713
L100728 61732
L100709 61751
L100690 61788
L100690 61807
L100709 61844
L100728 61863
L100765 61882
L100840 61882
L100878 61901
L100896 61919
L100915 61957
L100915 62032
L100896 62069
L100878 62088
L100840 62107
L100765 62107
L100728 62088
L100709 62069
L100690 62032
L100690 61957
L100709 61919
L100728 61901
L100765 61882
" />
<g >
</g>
</g> 
</svg>
