<?xml version="1.0" standalone="no"?>
 <!DOCTYPE svg PUBLIC "-//W3C//DTD SVG 1.1//EN" 
 "http://www.w3.org/Graphics/SVG/1.1/DTD/svg11.dtd"> 
<svg xmlns="http://www.w3.org/2000/svg" version="1.1" 
    width="29.7002cm" height="21.0007cm" viewBox="0 0 116930 82680 ">
<title>SVG Picture created as Millikan-F_Mask.svg date 2019/09/08 14:03:05 </title>
  <desc>Picture generated by PCBNEW </desc>
<g style="fill:#000000; fill-opacity:1;stroke:#000000; stroke-opacity:1;
stroke-linecap:round; stroke-linejoin:round; "
 transform="translate(0 0) scale(1 1)">
</g>
<g style="fill:#000000; fill-opacity:0.0; 
stroke:#000000; stroke-width:-0.000393701; stroke-opacity:1; 
stroke-linecap:round; stroke-linejoin:round;">
</g>
<g style="fill:#000000; fill-opacity:0.0; 
stroke:#000000; stroke-width:19.685; stroke-opacity:1; 
stroke-linecap:round; stroke-linejoin:round;">
<circle cx="104500" cy="40500" r="656.168" /> 
<path d="M103515 40500
L105484 40500
" />
<path d="M104500 39515
L104500 41484
" />
<circle cx="78500" cy="70500" r="656.168" /> 
<path d="M77515 70500
L79484 70500
" />
<path d="M78500 69515
L78500 71484
" />
<circle cx="49500" cy="64500" r="656.168" /> 
<path d="M48515 64500
L50484 64500
" />
<path d="M49500 63515
L49500 65484
" />
<circle cx="33000" cy="42500" r="656.168" /> 
<path d="M32015 42500
L33984 42500
" />
<path d="M33000 41515
L33000 43484
" />
<circle cx="42500" cy="33000" r="656.168" /> 
<path d="M41515 33000
L43484 33000
" />
<path d="M42500 32015
L42500 33984
" />
<circle cx="90000" cy="1500" r="656.168" /> 
<path d="M89015 1500
L90984 1500
" />
<path d="M90000 515
L90000 2484
" />
<circle cx="42500" cy="1500" r="656.168" /> 
<path d="M41515 1500
L43484 1500
" />
<path d="M42500 515
L42500 2484
" />
<circle cx="90000" cy="33000" r="656.168" /> 
<path d="M89015 33000
L90984 33000
" />
<path d="M90000 32015
L90000 33984
" />
<circle cx="104500" cy="70500" r="656.168" /> 
<path d="M103515 70500
L105484 70500
" />
<path d="M104500 69515
L104500 71484
" />
<circle cx="78500" cy="40500" r="656.168" /> 
<path d="M77515 40500
L79484 40500
" />
<path d="M78500 39515
L78500 41484
" />
<circle cx="33000" cy="64500" r="656.168" /> 
<path d="M32015 64500
L33984 64500
" />
<path d="M33000 63515
L33000 65484
" />
<circle cx="49500" cy="42500" r="656.168" /> 
<path d="M48515 42500
L50484 42500
" />
<path d="M49500 41515
L49500 43484
" />
<path d="M90000 33000
L90000 1500
" />
<path d="M42500 33000
L90000 33000
" />
<path d="M42500 1500
L42500 33000
" />
<path d="M90000 1500
L42500 1500
" />
<path d="M104500 40500
L104500 70500
" />
<path d="M78500 40500
L104500 40500
" />
<path d="M78500 70500
L78500 40500
" />
<path d="M104500 70500
L78500 70500
" />
<path d="M33000 64500
L33000 42500
" />
<path d="M49500 64500
L33000 64500
" />
<path d="M49500 42500
L49500 64500
" />
<path d="M33000 42500
L49500 42500
" />
</g>
<g style="fill:#000000; fill-opacity:1.0; 
stroke:#000000; stroke-width:0; stroke-opacity:1; 
stroke-linecap:round; stroke-linejoin:round;">
<path style="fill:#000000; fill-opacity:1.0; 
stroke:#000000; stroke-width:0; stroke-opacity:1; 
stroke-linecap:round; stroke-linejoin:round;fill-rule:evenodd;"
d="M 80224,68261
80349,68313
80363,68319
80489,68403
80596,68510
80680,68636
80680,68636
80738,68775
80768,68924
80768,69075
80738,69224
80680,69363
80680,69363
80596,69489
80489,69596
80363,69680
80363,69680
80363,69680
80224,69738
80075,69768
79924,69768
79775,69738
79636,69680
79636,69680
79636,69680
79510,69596
79403,69489
79319,69363
79319,69363
79261,69224
79231,69075
79231,68924
79261,68775
79319,68636
79319,68636
79403,68510
79510,68403
79636,68319
79650,68313
79775,68261
79924,68231
80075,68231
80224,68261
Z" /> 
<path style="fill:#000000; fill-opacity:1.0; 
stroke:#000000; stroke-width:0; stroke-opacity:1; 
stroke-linecap:round; stroke-linejoin:round;fill-rule:evenodd;"
d="M 103224,68261
103349,68313
103363,68319
103489,68403
103596,68510
103680,68636
103680,68636
103738,68775
103768,68924
103768,69075
103738,69224
103680,69363
103680,69363
103596,69489
103489,69596
103363,69680
103363,69680
103363,69680
103224,69738
103075,69768
102924,69768
102775,69738
102636,69680
102636,69680
102636,69680
102510,69596
102403,69489
102319,69363
102319,69363
102261,69224
102231,69075
102231,68924
102261,68775
102319,68636
102319,68636
102403,68510
102510,68403
102636,68319
102650,68313
102775,68261
102924,68231
103075,68231
103224,68261
Z" /> 
<path style="fill:#000000; fill-opacity:1.0; 
stroke:#000000; stroke-width:0; stroke-opacity:1; 
stroke-linecap:round; stroke-linejoin:round;fill-rule:evenodd;"
d="M 92413,68913
91586,68913
91586,68086
92413,68086
92413,68913
Z" /> 
<path style="fill:#000000; fill-opacity:1.0; 
stroke:#000000; stroke-width:0; stroke-opacity:1; 
stroke-linecap:round; stroke-linejoin:round;fill-rule:evenodd;"
d="M 91078,68110
91130,68121
91202,68150
91266,68193
91321,68248
91330,68261
91364,68313
91367,68319
91394,68385
91409,68461
91409,68538
91394,68614
91364,68686
91321,68751
91266,68806
91202,68849
91130,68878
91054,68894
90976,68894
90900,68878
90829,68849
90764,68806
90709,68751
90666,68686
90636,68614
90621,68538
90621,68461
90636,68385
90664,68319
90666,68313
90701,68261
90709,68248
90764,68193
90829,68150
90900,68121
90953,68110
90976,68105
91054,68105
91078,68110
Z" /> 
<path style="fill:#000000; fill-opacity:1.0; 
stroke:#000000; stroke-width:0; stroke-opacity:1; 
stroke-linecap:round; stroke-linejoin:round;fill-rule:evenodd;"
d="M 87119,66901
87178,66912
87289,66958
87389,67025
87474,67110
87541,67210
87587,67321
87610,67439
87610,67560
87587,67678
87541,67789
87474,67889
87389,67974
87289,68041
87178,68087
87119,68098
87060,68110
86939,68110
86880,68098
86821,68087
86710,68041
86610,67974
86525,67889
86458,67789
86412,67678
86389,67560
86389,67439
86412,67321
86458,67210
86525,67110
86610,67025
86710,66958
86821,66912
86880,66901
86939,66889
87060,66889
87119,66901
Z" /> 
<path style="fill:#000000; fill-opacity:1.0; 
stroke:#000000; stroke-width:0; stroke-opacity:1; 
stroke-linecap:round; stroke-linejoin:round;fill-rule:evenodd;"
d="M 96119,66901
96178,66912
96289,66958
96389,67025
96474,67110
96541,67210
96587,67321
96610,67439
96610,67560
96587,67678
96541,67789
96474,67889
96389,67974
96289,68041
96178,68087
96119,68098
96060,68110
95939,68110
95880,68098
95821,68087
95710,68041
95610,67974
95525,67889
95458,67789
95412,67678
95389,67560
95389,67439
95412,67321
95458,67210
95525,67110
95610,67025
95710,66958
95821,66912
95880,66901
95939,66889
96060,66889
96119,66901
Z" /> 
<path style="fill:#000000; fill-opacity:1.0; 
stroke:#000000; stroke-width:0; stroke-opacity:1; 
stroke-linecap:round; stroke-linejoin:round;fill-rule:evenodd;"
d="M 82119,65401
82178,65412
82289,65458
82389,65525
82474,65610
82541,65710
82587,65821
82610,65939
82610,66060
82587,66178
82541,66289
82474,66389
82389,66474
82289,66541
82178,66587
82119,66598
82060,66610
81939,66610
81880,66598
81821,66587
81710,66541
81610,66474
81525,66389
81458,66289
81412,66178
81389,66060
81389,65939
81412,65821
81458,65710
81525,65610
81610,65525
81710,65458
81821,65412
81880,65401
81939,65389
82060,65389
82119,65401
Z" /> 
<path style="fill:#000000; fill-opacity:1.0; 
stroke:#000000; stroke-width:0; stroke-opacity:1; 
stroke-linecap:round; stroke-linejoin:round;fill-rule:evenodd;"
d="M 101119,65401
101178,65412
101289,65458
101389,65525
101474,65610
101541,65710
101587,65821
101610,65939
101610,66060
101587,66178
101541,66289
101474,66389
101389,66474
101289,66541
101178,66587
101119,66598
101060,66610
100939,66610
100880,66598
100821,66587
100710,66541
100610,66474
100525,66389
100458,66289
100412,66178
100389,66060
100389,65939
100412,65821
100458,65710
100525,65610
100610,65525
100710,65458
100821,65412
100880,65401
100939,65389
101060,65389
101119,65401
Z" /> 
<path style="fill:#000000; fill-opacity:1.0; 
stroke:#000000; stroke-width:0; stroke-opacity:1; 
stroke-linecap:round; stroke-linejoin:round;fill-rule:evenodd;"
d="M 93364,65864
92635,65864
92635,65135
93364,65135
93364,65864
Z" /> 
<path style="fill:#000000; fill-opacity:1.0; 
stroke:#000000; stroke-width:0; stroke-opacity:1; 
stroke-linecap:round; stroke-linejoin:round;fill-rule:evenodd;"
d="M 92122,65149
92188,65176
92248,65216
92298,65267
92338,65327
92366,65393
92380,65464
92380,65535
92366,65606
92338,65672
92298,65732
92248,65783
92188,65823
92122,65850
92051,65864
91979,65864
91909,65850
91843,65823
91783,65783
91732,65732
91692,65672
91665,65606
91651,65535
91651,65464
91665,65393
91692,65327
91732,65267
91783,65216
91843,65176
91909,65149
91979,65135
92051,65135
92122,65149
Z" /> 
<path style="fill:#000000; fill-opacity:1.0; 
stroke:#000000; stroke-width:0; stroke-opacity:1; 
stroke-linecap:round; stroke-linejoin:round;fill-rule:evenodd;"
d="M 91137,65149
91204,65176
91263,65216
91314,65267
91354,65327
91382,65393
91396,65464
91396,65535
91382,65606
91354,65672
91314,65732
91263,65783
91204,65823
91137,65850
91067,65864
90995,65864
90925,65850
90858,65823
90799,65783
90748,65732
90708,65672
90680,65606
90666,65535
90666,65464
90680,65393
90708,65327
90748,65267
90799,65216
90858,65176
90925,65149
90995,65135
91067,65135
91137,65149
Z" /> 
<path style="fill:#000000; fill-opacity:1.0; 
stroke:#000000; stroke-width:0; stroke-opacity:1; 
stroke-linecap:round; stroke-linejoin:round;fill-rule:evenodd;"
d="M 90153,65149
90219,65176
90279,65216
90330,65267
90370,65327
90397,65393
90411,65464
90411,65535
90397,65606
90370,65672
90330,65732
90279,65783
90219,65823
90153,65850
90083,65864
90011,65864
89940,65850
89874,65823
89814,65783
89764,65732
89724,65672
89696,65606
89682,65535
89682,65464
89696,65393
89724,65327
89764,65267
89814,65216
89874,65176
89940,65149
90011,65135
90083,65135
90153,65149
Z" /> 
<path style="fill:#000000; fill-opacity:1.0; 
stroke:#000000; stroke-width:0; stroke-opacity:1; 
stroke-linecap:round; stroke-linejoin:round;fill-rule:evenodd;"
d="M 45120,62602
45195,62633
45195,62633
45263,62678
45321,62736
45366,62804
45397,62879
45413,62959
45413,63040
45397,63120
45366,63195
45366,63195
45321,63263
45263,63321
45195,63366
45195,63366
45195,63366
45120,63397
45040,63413
44959,63413
44879,63397
44804,63366
44804,63366
44804,63366
44736,63321
44678,63263
44633,63195
44633,63195
44602,63120
44586,63040
44586,62959
44602,62879
44633,62804
44678,62736
44736,62678
44804,62633
44804,62633
44879,62602
44959,62586
45040,62586
45120,62602
Z" /> 
<path style="fill:#000000; fill-opacity:1.0; 
stroke:#000000; stroke-width:0; stroke-opacity:1; 
stroke-linecap:round; stroke-linejoin:round;fill-rule:evenodd;"
d="M 34724,61761
34826,61804
34863,61819
34989,61903
35096,62010
35180,62136
35180,62136
35238,62275
35268,62424
35268,62575
35238,62724
35204,62806
35180,62863
35096,62989
34989,63096
34863,63180
34863,63180
34863,63180
34724,63238
34575,63268
34424,63268
34275,63238
34136,63180
34136,63180
34136,63180
34010,63096
33903,62989
33819,62863
33795,62806
33761,62724
33731,62575
33731,62424
33761,62275
33819,62136
33819,62136
33903,62010
34010,61903
34136,61819
34173,61804
34275,61761
34424,61731
34575,61731
34724,61761
Z" /> 
<path style="fill:#000000; fill-opacity:1.0; 
stroke:#000000; stroke-width:0; stroke-opacity:1; 
stroke-linecap:round; stroke-linejoin:round;fill-rule:evenodd;"
d="M 48224,61761
48326,61804
48363,61819
48489,61903
48596,62010
48680,62136
48680,62136
48738,62275
48768,62424
48768,62575
48738,62724
48704,62806
48680,62863
48596,62989
48489,63096
48363,63180
48363,63180
48363,63180
48224,63238
48075,63268
47924,63268
47775,63238
47636,63180
47636,63180
47636,63180
47510,63096
47403,62989
47319,62863
47295,62806
47261,62724
47231,62575
47231,62424
47261,62275
47319,62136
47319,62136
47403,62010
47510,61903
47636,61819
47673,61804
47775,61761
47924,61731
48075,61731
48224,61761
Z" /> 
<path style="fill:#000000; fill-opacity:1.0; 
stroke:#000000; stroke-width:0; stroke-opacity:1; 
stroke-linecap:round; stroke-linejoin:round;fill-rule:evenodd;"
d="M 43614,62121
43686,62150
43751,62193
43806,62248
43849,62313
43878,62385
43894,62461
43894,62538
43878,62614
43849,62686
43806,62751
43751,62806
43686,62849
43614,62878
43538,62894
43461,62894
43385,62878
43313,62849
43248,62806
43193,62751
43150,62686
43121,62614
43105,62538
43105,62461
43121,62385
43150,62313
43193,62248
43248,62193
43313,62150
43385,62121
43461,62105
43538,62105
43614,62121
Z" /> 
<path style="fill:#000000; fill-opacity:1.0; 
stroke:#000000; stroke-width:0; stroke-opacity:1; 
stroke-linecap:round; stroke-linejoin:round;fill-rule:evenodd;"
d="M 42614,62121
42686,62150
42751,62193
42806,62248
42849,62313
42878,62385
42894,62461
42894,62538
42878,62614
42849,62686
42806,62751
42751,62806
42686,62849
42614,62878
42538,62894
42461,62894
42385,62878
42313,62849
42248,62806
42193,62751
42150,62686
42121,62614
42105,62538
42105,62461
42121,62385
42150,62313
42193,62248
42248,62193
42313,62150
42385,62121
42461,62105
42538,62105
42614,62121
Z" /> 
<path style="fill:#000000; fill-opacity:1.0; 
stroke:#000000; stroke-width:0; stroke-opacity:1; 
stroke-linecap:round; stroke-linejoin:round;fill-rule:evenodd;"
d="M 45120,61602
45195,61633
45195,61633
45263,61678
45321,61736
45366,61804
45397,61879
45413,61959
45413,62040
45397,62120
45367,62193
45366,62195
45321,62263
45263,62321
45195,62366
45195,62366
45195,62366
45120,62397
45040,62413
44959,62413
44879,62397
44804,62366
44804,62366
44804,62366
44736,62321
44678,62263
44633,62195
44632,62193
44602,62120
44586,62040
44586,61959
44602,61879
44633,61804
44678,61736
44736,61678
44804,61633
44804,61633
44879,61602
44959,61586
45040,61586
45120,61602
Z" /> 
<path style="fill:#000000; fill-opacity:1.0; 
stroke:#000000; stroke-width:0; stroke-opacity:1; 
stroke-linecap:round; stroke-linejoin:round;fill-rule:evenodd;"
d="M 45120,60602
45195,60633
45195,60633
45263,60678
45321,60736
45329,60748
45366,60804
45397,60879
45413,60959
45413,61040
45397,61120
45370,61186
45366,61195
45321,61263
45263,61321
45195,61366
45195,61366
45195,61366
45120,61397
45040,61413
44959,61413
44879,61397
44804,61366
44804,61366
44804,61366
44736,61321
44678,61263
44633,61195
44629,61186
44602,61120
44586,61040
44586,60959
44602,60879
44633,60804
44670,60748
44678,60736
44736,60678
44804,60633
44804,60633
44879,60602
44959,60586
45040,60586
45120,60602
Z" /> 
<path style="fill:#000000; fill-opacity:1.0; 
stroke:#000000; stroke-width:0; stroke-opacity:1; 
stroke-linecap:round; stroke-linejoin:round;fill-rule:evenodd;"
d="M 43894,61394
43105,61394
43105,60605
43894,60605
43894,61394
Z" /> 
<path style="fill:#000000; fill-opacity:1.0; 
stroke:#000000; stroke-width:0; stroke-opacity:1; 
stroke-linecap:round; stroke-linejoin:round;fill-rule:evenodd;"
d="M 42614,60621
42686,60650
42751,60693
42806,60748
42849,60813
42878,60885
42894,60961
42894,61038
42878,61114
42849,61186
42806,61251
42751,61306
42686,61349
42614,61378
42576,61386
42538,61394
42461,61394
42423,61386
42385,61378
42313,61349
42248,61306
42193,61251
42150,61186
42121,61114
42105,61038
42105,60961
42121,60885
42150,60813
42193,60748
42248,60693
42313,60650
42385,60621
42461,60605
42538,60605
42614,60621
Z" /> 
<path style="fill:#000000; fill-opacity:1.0; 
stroke:#000000; stroke-width:0; stroke-opacity:1; 
stroke-linecap:round; stroke-linejoin:round;fill-rule:evenodd;"
d="M 45120,59602
45195,59633
45195,59633
45243,59664
45263,59678
45321,59736
45366,59804
45397,59879
45413,59959
45413,60040
45397,60120
45370,60187
45366,60195
45321,60263
45263,60321
45195,60366
45195,60366
45195,60366
45120,60397
45040,60413
44959,60413
44879,60397
44804,60366
44804,60366
44804,60366
44736,60321
44678,60263
44633,60195
44629,60187
44602,60120
44586,60040
44586,59959
44602,59879
44633,59804
44678,59736
44736,59678
44756,59664
44804,59633
44804,59633
44879,59602
44959,59586
45040,59586
45120,59602
Z" /> 
<path style="fill:#000000; fill-opacity:1.0; 
stroke:#000000; stroke-width:0; stroke-opacity:1; 
stroke-linecap:round; stroke-linejoin:round;fill-rule:evenodd;"
d="M 93597,59677
93658,59703
93713,59739
93760,59786
93796,59841
93822,59902
93835,59967
93835,60032
93822,60097
93796,60158
93760,60213
93713,60260
93658,60296
93597,60322
93532,60335
93467,60335
93402,60322
93341,60296
93286,60260
93239,60213
93203,60158
93177,60097
93164,60032
93164,59967
93177,59902
93203,59841
93239,59786
93286,59739
93341,59703
93402,59677
93467,59664
93532,59664
93597,59677
Z" /> 
<path style="fill:#000000; fill-opacity:1.0; 
stroke:#000000; stroke-width:0; stroke-opacity:1; 
stroke-linecap:round; stroke-linejoin:round;fill-rule:evenodd;"
d="M 89565,59669
89628,59688
89681,59716
89687,59720
89738,59761
89779,59812
89779,59812
89811,59871
89830,59934
89836,60000
89830,60065
89811,60128
89795,60158
89779,60187
89738,60238
89687,60279
89687,60279
89628,60311
89565,60330
89516,60335
89483,60335
89434,60330
89371,60311
89312,60279
89312,60279
89261,60238
89220,60187
89204,60158
89188,60128
89169,60065
89163,60000
89169,59934
89188,59871
89220,59812
89220,59812
89261,59761
89312,59720
89318,59716
89371,59688
89434,59669
89483,59664
89516,59664
89565,59669
Z" /> 
<path style="fill:#000000; fill-opacity:1.0; 
stroke:#000000; stroke-width:0; stroke-opacity:1; 
stroke-linecap:round; stroke-linejoin:round;fill-rule:evenodd;"
d="M 37649,59007
37729,59040
37742,59046
37826,59102
37897,59173
37940,59238
37953,59257
37992,59350
38012,59449
38012,59550
37992,59649
37953,59742
37953,59742
37897,59826
37826,59897
37742,59953
37742,59953
37742,59953
37649,59992
37550,60012
37449,60012
37350,59992
37257,59953
37257,59953
37257,59953
37173,59897
37102,59826
37046,59742
37046,59742
37007,59649
36987,59550
36987,59449
37007,59350
37046,59257
37059,59238
37102,59173
37173,59102
37257,59046
37270,59040
37350,59007
37449,58987
37550,58987
37649,59007
Z" /> 
<path style="fill:#000000; fill-opacity:1.0; 
stroke:#000000; stroke-width:0; stroke-opacity:1; 
stroke-linecap:round; stroke-linejoin:round;fill-rule:evenodd;"
d="M 43874,59874
43125,59874
43125,59125
43874,59125
43874,59874
Z" /> 
<path style="fill:#000000; fill-opacity:1.0; 
stroke:#000000; stroke-width:0; stroke-opacity:1; 
stroke-linecap:round; stroke-linejoin:round;fill-rule:evenodd;"
d="M 39573,59131
39573,59131
39573,59131
39643,59152
39643,59152
39643,59152
39709,59187
39766,59233
39812,59290
39836,59335
39847,59356
39868,59426
39868,59426
39876,59500
39868,59573
39868,59573
39868,59573
39847,59643
39847,59643
39847,59643
39812,59709
39766,59766
39709,59812
39643,59847
39643,59847
39573,59868
39573,59868
39573,59868
39518,59874
39481,59874
39426,59868
39426,59868
39426,59868
39356,59847
39356,59847
39290,59812
39233,59766
39187,59709
39152,59643
39152,59643
39152,59643
39131,59573
39131,59573
39131,59573
39123,59500
39131,59426
39131,59426
39152,59356
39163,59335
39187,59290
39233,59233
39290,59187
39356,59152
39356,59152
39356,59152
39426,59131
39426,59131
39426,59131
39481,59125
39518,59125
39573,59131
Z" /> 
<path style="fill:#000000; fill-opacity:1.0; 
stroke:#000000; stroke-width:0; stroke-opacity:1; 
stroke-linecap:round; stroke-linejoin:round;fill-rule:evenodd;"
d="M 45120,58602
45195,58633
45195,58633
45243,58664
45263,58678
45321,58736
45366,58804
45397,58879
45413,58959
45413,59040
45397,59120
45366,59195
45366,59195
45321,59263
45263,59321
45195,59366
45195,59366
45195,59366
45120,59397
45040,59413
44959,59413
44879,59397
44804,59366
44804,59366
44804,59366
44736,59321
44678,59263
44633,59195
44633,59195
44602,59120
44586,59040
44586,58959
44602,58879
44633,58804
44678,58736
44736,58678
44756,58664
44804,58633
44804,58633
44879,58602
44959,58586
45040,58586
45120,58602
Z" /> 
<path style="fill:#000000; fill-opacity:1.0; 
stroke:#000000; stroke-width:0; stroke-opacity:1; 
stroke-linecap:round; stroke-linejoin:round;fill-rule:evenodd;"
d="M 93565,58669
93628,58688
93655,58703
93687,58720
93738,58761
93779,58812
93779,58812
93811,58871
93830,58934
93836,59000
93830,59065
93811,59128
93795,59158
93779,59187
93738,59238
93687,59279
93687,59279
93628,59311
93565,59330
93516,59335
93483,59335
93434,59330
93371,59311
93312,59279
93312,59279
93261,59238
93220,59187
93204,59158
93188,59128
93169,59065
93163,59000
93169,58934
93188,58871
93220,58812
93220,58812
93261,58761
93312,58720
93344,58703
93371,58688
93434,58669
93483,58664
93516,58664
93565,58669
Z" /> 
<path style="fill:#000000; fill-opacity:1.0; 
stroke:#000000; stroke-width:0; stroke-opacity:1; 
stroke-linecap:round; stroke-linejoin:round;fill-rule:evenodd;"
d="M 89597,58677
89658,58703
89713,58739
89760,58786
89796,58841
89822,58902
89835,58967
89835,59032
89822,59097
89796,59158
89760,59213
89713,59260
89658,59296
89597,59322
89532,59335
89467,59335
89402,59322
89341,59296
89286,59260
89239,59213
89203,59158
89177,59097
89164,59032
89164,58967
89177,58902
89203,58841
89239,58786
89286,58739
89341,58703
89402,58677
89467,58664
89532,58664
89597,58677
Z" /> 
<path style="fill:#000000; fill-opacity:1.0; 
stroke:#000000; stroke-width:0; stroke-opacity:1; 
stroke-linecap:round; stroke-linejoin:round;fill-rule:evenodd;"
d="M 82119,57401
82178,57412
82289,57458
82389,57525
82474,57610
82541,57710
82587,57821
82610,57939
82610,58060
82587,58178
82541,58289
82474,58389
82389,58474
82289,58541
82178,58587
82119,58598
82060,58610
81939,58610
81880,58598
81821,58587
81710,58541
81610,58474
81525,58389
81458,58289
81412,58178
81389,58060
81389,57939
81412,57821
81458,57710
81525,57610
81610,57525
81710,57458
81821,57412
81880,57401
81939,57389
82060,57389
82119,57401
Z" /> 
<path style="fill:#000000; fill-opacity:1.0; 
stroke:#000000; stroke-width:0; stroke-opacity:1; 
stroke-linecap:round; stroke-linejoin:round;fill-rule:evenodd;"
d="M 101119,57401
101178,57412
101289,57458
101389,57525
101474,57610
101541,57710
101587,57821
101610,57939
101610,58060
101587,58178
101541,58289
101474,58389
101389,58474
101289,58541
101178,58587
101119,58598
101060,58610
100939,58610
100880,58598
100821,58587
100710,58541
100610,58474
100525,58389
100458,58289
100412,58178
100389,58060
100389,57939
100412,57821
100458,57710
100525,57610
100610,57525
100710,57458
100821,57412
100880,57401
100939,57389
101060,57389
101119,57401
Z" /> 
<path style="fill:#000000; fill-opacity:1.0; 
stroke:#000000; stroke-width:0; stroke-opacity:1; 
stroke-linecap:round; stroke-linejoin:round;fill-rule:evenodd;"
d="M 45120,57602
45195,57633
45195,57633
45263,57678
45321,57736
45366,57804
45397,57879
45413,57959
45413,58040
45397,58120
45374,58178
45366,58195
45321,58263
45263,58321
45195,58366
45195,58366
45195,58366
45120,58397
45040,58413
44959,58413
44879,58397
44804,58366
44804,58366
44804,58366
44736,58321
44678,58263
44633,58195
44625,58178
44602,58120
44586,58040
44586,57959
44602,57879
44633,57804
44678,57736
44736,57678
44804,57633
44804,57633
44879,57602
44959,57586
45040,57586
45120,57602
Z" /> 
<path style="fill:#000000; fill-opacity:1.0; 
stroke:#000000; stroke-width:0; stroke-opacity:1; 
stroke-linecap:round; stroke-linejoin:round;fill-rule:evenodd;"
d="M 37649,57007
37742,57046
37742,57046
37826,57102
37897,57173
37937,57232
37953,57257
37992,57350
38012,57449
38012,57550
37992,57649
37966,57710
37953,57742
37897,57826
37826,57897
37742,57953
37742,57953
37742,57953
37649,57992
37550,58012
37449,58012
37350,57992
37257,57953
37257,57953
37257,57953
37173,57897
37102,57826
37046,57742
37033,57710
37007,57649
36987,57550
36987,57449
37007,57350
37046,57257
37062,57232
37102,57173
37173,57102
37257,57046
37257,57046
37350,57007
37449,56987
37550,56987
37649,57007
Z" /> 
<path style="fill:#000000; fill-opacity:1.0; 
stroke:#000000; stroke-width:0; stroke-opacity:1; 
stroke-linecap:round; stroke-linejoin:round;fill-rule:evenodd;"
d="M 42074,56649
42141,56676
42200,56716
42251,56767
42291,56827
42319,56893
42333,56964
42333,57035
42319,57106
42291,57172
42251,57232
42200,57283
42141,57323
42074,57350
42004,57364
41932,57364
41862,57350
41795,57323
41736,57283
41685,57232
41645,57172
41617,57106
41603,57035
41603,56964
41617,56893
41645,56827
41685,56767
41736,56716
41795,56676
41862,56649
41932,56635
42004,56635
42074,56649
Z" /> 
<path style="fill:#000000; fill-opacity:1.0; 
stroke:#000000; stroke-width:0; stroke-opacity:1; 
stroke-linecap:round; stroke-linejoin:round;fill-rule:evenodd;"
d="M 40364,57364
39635,57364
39635,56635
40364,56635
40364,57364
Z" /> 
<path style="fill:#000000; fill-opacity:1.0; 
stroke:#000000; stroke-width:0; stroke-opacity:1; 
stroke-linecap:round; stroke-linejoin:round;fill-rule:evenodd;"
d="M 41090,56649
41156,56676
41216,56716
41267,56767
41307,56827
41334,56893
41348,56964
41348,57035
41334,57106
41307,57172
41267,57232
41216,57283
41156,57323
41090,57350
41020,57364
40948,57364
40877,57350
40811,57323
40751,57283
40701,57232
40661,57172
40633,57106
40619,57035
40619,56964
40633,56893
40661,56827
40701,56767
40751,56716
40811,56676
40877,56649
40948,56635
41020,56635
41090,56649
Z" /> 
<path style="fill:#000000; fill-opacity:1.0; 
stroke:#000000; stroke-width:0; stroke-opacity:1; 
stroke-linecap:round; stroke-linejoin:round;fill-rule:evenodd;"
d="M 87119,55901
87178,55912
87289,55958
87389,56025
87474,56110
87541,56210
87587,56321
87610,56439
87610,56560
87587,56678
87541,56789
87474,56889
87389,56974
87289,57041
87178,57087
87119,57098
87060,57110
86939,57110
86880,57098
86821,57087
86710,57041
86610,56974
86525,56889
86458,56789
86412,56678
86389,56560
86389,56439
86412,56321
86458,56210
86525,56110
86610,56025
86710,55958
86821,55912
86880,55901
86939,55889
87060,55889
87119,55901
Z" /> 
<path style="fill:#000000; fill-opacity:1.0; 
stroke:#000000; stroke-width:0; stroke-opacity:1; 
stroke-linecap:round; stroke-linejoin:round;fill-rule:evenodd;"
d="M 96119,55901
96178,55912
96289,55958
96389,56025
96474,56110
96541,56210
96587,56321
96610,56439
96610,56560
96587,56678
96541,56789
96474,56889
96389,56974
96289,57041
96178,57087
96119,57098
96060,57110
95939,57110
95880,57098
95821,57087
95710,57041
95610,56974
95525,56889
95458,56789
95412,56678
95389,56560
95389,56439
95412,56321
95458,56210
95525,56110
95610,56025
95710,55958
95821,55912
95880,55901
95939,55889
96060,55889
96119,55901
Z" /> 
<path style="fill:#000000; fill-opacity:1.0; 
stroke:#000000; stroke-width:0; stroke-opacity:1; 
stroke-linecap:round; stroke-linejoin:round;fill-rule:evenodd;"
d="M 37619,54401
37678,54412
37789,54458
37889,54525
37974,54610
38041,54710
38083,54812
38087,54821
38110,54939
38110,55060
38103,55097
38087,55178
38041,55289
37974,55389
37889,55474
37789,55541
37678,55587
37619,55598
37560,55610
37439,55610
37380,55598
37321,55587
37210,55541
37110,55474
37025,55389
36958,55289
36912,55178
36896,55097
36889,55060
36889,54939
36912,54821
36916,54812
36958,54710
37025,54610
37110,54525
37210,54458
37321,54412
37380,54401
37439,54389
37560,54389
37619,54401
Z" /> 
<path style="fill:#000000; fill-opacity:1.0; 
stroke:#000000; stroke-width:0; stroke-opacity:1; 
stroke-linecap:round; stroke-linejoin:round;fill-rule:evenodd;"
d="M 93597,54677
93658,54703
93713,54739
93760,54786
93796,54841
93822,54902
93835,54967
93835,55032
93822,55097
93796,55158
93760,55213
93713,55260
93658,55296
93597,55322
93532,55335
93467,55335
93402,55322
93341,55296
93286,55260
93239,55213
93203,55158
93177,55097
93164,55032
93164,54967
93177,54902
93203,54841
93239,54786
93286,54739
93341,54703
93402,54677
93467,54664
93532,54664
93597,54677
Z" /> 
<path style="fill:#000000; fill-opacity:1.0; 
stroke:#000000; stroke-width:0; stroke-opacity:1; 
stroke-linecap:round; stroke-linejoin:round;fill-rule:evenodd;"
d="M 89565,54669
89628,54688
89655,54703
89687,54720
89738,54761
89779,54812
89779,54812
89811,54871
89830,54934
89836,55000
89830,55065
89811,55128
89795,55158
89779,55187
89738,55238
89687,55279
89687,55279
89628,55311
89565,55330
89516,55335
89483,55335
89434,55330
89371,55311
89312,55279
89312,55279
89261,55238
89220,55187
89204,55158
89188,55128
89169,55065
89163,55000
89169,54934
89188,54871
89220,54812
89220,54812
89261,54761
89312,54720
89344,54703
89371,54688
89434,54669
89483,54664
89516,54664
89565,54669
Z" /> 
<path style="fill:#000000; fill-opacity:1.0; 
stroke:#000000; stroke-width:0; stroke-opacity:1; 
stroke-linecap:round; stroke-linejoin:round;fill-rule:evenodd;"
d="M 87119,53901
87178,53912
87289,53958
87389,54025
87474,54110
87541,54210
87587,54321
87587,54321
87605,54412
87610,54439
87610,54560
87587,54678
87541,54789
87474,54889
87389,54974
87289,55041
87178,55087
87125,55097
87060,55110
86939,55110
86874,55097
86821,55087
86710,55041
86610,54974
86525,54889
86458,54789
86412,54678
86389,54560
86389,54439
86394,54412
86412,54321
86412,54321
86458,54210
86525,54110
86610,54025
86710,53958
86821,53912
86880,53901
86939,53889
87060,53889
87119,53901
Z" /> 
<path style="fill:#000000; fill-opacity:1.0; 
stroke:#000000; stroke-width:0; stroke-opacity:1; 
stroke-linecap:round; stroke-linejoin:round;fill-rule:evenodd;"
d="M 96119,53901
96178,53912
96289,53958
96389,54025
96474,54110
96541,54210
96587,54321
96587,54321
96605,54412
96610,54439
96610,54560
96587,54678
96541,54789
96474,54889
96389,54974
96289,55041
96178,55087
96125,55097
96060,55110
95939,55110
95874,55097
95821,55087
95710,55041
95610,54974
95525,54889
95458,54789
95412,54678
95389,54560
95389,54439
95394,54412
95412,54321
95412,54321
95458,54210
95525,54110
95610,54025
95710,53958
95821,53912
95880,53901
95939,53889
96060,53889
96119,53901
Z" /> 
<path style="fill:#000000; fill-opacity:1.0; 
stroke:#000000; stroke-width:0; stroke-opacity:1; 
stroke-linecap:round; stroke-linejoin:round;fill-rule:evenodd;"
d="M 35614,54105
35686,54135
35751,54178
35806,54233
35849,54297
35849,54297
35878,54369
35894,54445
35894,54523
35893,54525
35878,54599
35849,54670
35806,54735
35751,54790
35686,54833
35614,54863
35576,54870
35538,54878
35461,54878
35423,54870
35385,54863
35313,54833
35248,54790
35193,54735
35150,54670
35121,54599
35106,54525
35105,54523
35105,54445
35121,54369
35150,54297
35150,54297
35193,54233
35248,54178
35313,54135
35385,54105
35461,54090
35538,54090
35614,54105
Z" /> 
<path style="fill:#000000; fill-opacity:1.0; 
stroke:#000000; stroke-width:0; stroke-opacity:1; 
stroke-linecap:round; stroke-linejoin:round;fill-rule:evenodd;"
d="M 42619,52901
42678,52912
42789,52958
42889,53025
42974,53110
43041,53210
43073,53289
43087,53321
43110,53439
43110,53560
43100,53610
43087,53678
43041,53789
42974,53889
42889,53974
42789,54041
42678,54087
42619,54098
42560,54110
42439,54110
42380,54098
42321,54087
42210,54041
42110,53974
42025,53889
41958,53789
41912,53678
41899,53610
41889,53560
41889,53439
41912,53321
41926,53289
41958,53210
42025,53110
42110,53025
42210,52958
42321,52912
42380,52901
42439,52889
42560,52889
42619,52901
Z" /> 
<path style="fill:#000000; fill-opacity:1.0; 
stroke:#000000; stroke-width:0; stroke-opacity:1; 
stroke-linecap:round; stroke-linejoin:round;fill-rule:evenodd;"
d="M 35913,53913
35086,53913
35086,53086
35913,53086
35913,53913
Z" /> 
<path style="fill:#000000; fill-opacity:1.0; 
stroke:#000000; stroke-width:0; stroke-opacity:1; 
stroke-linecap:round; stroke-linejoin:round;fill-rule:evenodd;"
d="M 82119,52401
82178,52412
82289,52458
82389,52525
82474,52610
82541,52710
82587,52821
82587,52821
82605,52912
82610,52939
82610,53060
82587,53178
82541,53289
82474,53389
82389,53474
82289,53541
82178,53587
82119,53598
82060,53610
81939,53610
81880,53598
81821,53587
81710,53541
81610,53474
81525,53389
81458,53289
81412,53178
81389,53060
81389,52939
81394,52912
81412,52821
81412,52821
81458,52710
81525,52610
81610,52525
81710,52458
81821,52412
81880,52401
81939,52389
82060,52389
82119,52401
Z" /> 
<path style="fill:#000000; fill-opacity:1.0; 
stroke:#000000; stroke-width:0; stroke-opacity:1; 
stroke-linecap:round; stroke-linejoin:round;fill-rule:evenodd;"
d="M 101119,52401
101178,52412
101289,52458
101389,52525
101474,52610
101541,52710
101587,52821
101587,52821
101605,52912
101610,52939
101610,53060
101587,53178
101541,53289
101474,53389
101389,53474
101289,53541
101178,53587
101119,53598
101060,53610
100939,53610
100880,53598
100821,53587
100710,53541
100610,53474
100525,53389
100458,53289
100412,53178
100389,53060
100389,52939
100394,52912
100412,52821
100412,52821
100458,52710
100525,52610
100610,52525
100710,52458
100821,52412
100880,52401
100939,52389
101060,52389
101119,52401
Z" /> 
<path style="fill:#000000; fill-opacity:1.0; 
stroke:#000000; stroke-width:0; stroke-opacity:1; 
stroke-linecap:round; stroke-linejoin:round;fill-rule:evenodd;"
d="M 92556,51555
92600,51564
92683,51598
92757,51648
92820,51711
92870,51785
92904,51867
92921,51955
92921,52044
92904,52132
92870,52214
92820,52288
92757,52351
92683,52401
92600,52435
92556,52444
92513,52453
92423,52453
92380,52444
92336,52435
92253,52401
92179,52351
92116,52288
92066,52214
92032,52132
92015,52044
92015,51955
92032,51867
92066,51785
92116,51711
92179,51648
92253,51598
92336,51564
92380,51555
92423,51546
92513,51546
92556,51555
Z" /> 
<path style="fill:#000000; fill-opacity:1.0; 
stroke:#000000; stroke-width:0; stroke-opacity:1; 
stroke-linecap:round; stroke-linejoin:round;fill-rule:evenodd;"
d="M 90588,51555
90632,51564
90714,51598
90788,51648
90851,51711
90901,51785
90935,51867
90953,51955
90953,52044
90935,52132
90901,52214
90851,52288
90788,52351
90714,52401
90632,52435
90588,52444
90544,52453
90455,52453
90411,52444
90367,52435
90285,52401
90211,52351
90148,52288
90098,52214
90064,52132
90046,52044
90046,51955
90064,51867
90098,51785
90148,51711
90211,51648
90285,51598
90367,51564
90411,51555
90455,51546
90544,51546
90588,51555
Z" /> 
<path style="fill:#000000; fill-opacity:1.0; 
stroke:#000000; stroke-width:0; stroke-opacity:1; 
stroke-linecap:round; stroke-linejoin:round;fill-rule:evenodd;"
d="M 35413,51413
34586,51413
34586,50586
35413,50586
35413,51413
Z" /> 
<path style="fill:#000000; fill-opacity:1.0; 
stroke:#000000; stroke-width:0; stroke-opacity:1; 
stroke-linecap:round; stroke-linejoin:round;fill-rule:evenodd;"
d="M 35114,49636
35186,49666
35251,49709
35306,49764
35349,49829
35378,49900
35394,49976
35394,50054
35378,50130
35349,50202
35306,50266
35251,50321
35186,50364
35114,50394
35038,50409
34961,50409
34885,50394
34813,50364
34748,50321
34693,50266
34650,50202
34621,50130
34605,50054
34605,49976
34621,49900
34650,49829
34693,49764
34748,49709
34813,49666
34885,49636
34961,49621
35038,49621
35114,49636
Z" /> 
<path style="fill:#000000; fill-opacity:1.0; 
stroke:#000000; stroke-width:0; stroke-opacity:1; 
stroke-linecap:round; stroke-linejoin:round;fill-rule:evenodd;"
d="M 92953,48453
92046,48453
92046,47546
92953,47546
92953,48453
Z" /> 
<path style="fill:#000000; fill-opacity:1.0; 
stroke:#000000; stroke-width:0; stroke-opacity:1; 
stroke-linecap:round; stroke-linejoin:round;fill-rule:evenodd;"
d="M 90619,47555
90663,47564
90746,47598
90820,47648
90883,47711
90900,47736
90933,47785
90967,47867
90984,47955
90984,48044
90967,48132
90940,48195
90933,48214
90883,48288
90820,48351
90746,48401
90663,48435
90619,48444
90576,48453
90486,48453
90443,48444
90399,48435
90316,48401
90242,48351
90179,48288
90129,48214
90122,48195
90095,48132
90078,48044
90078,47955
90095,47867
90129,47785
90162,47736
90179,47711
90242,47648
90316,47598
90399,47564
90443,47555
90486,47546
90576,47546
90619,47555
Z" /> 
<path style="fill:#000000; fill-opacity:1.0; 
stroke:#000000; stroke-width:0; stroke-opacity:1; 
stroke-linecap:round; stroke-linejoin:round;fill-rule:evenodd;"
d="M 45120,47602
45195,47633
45195,47633
45263,47678
45321,47736
45354,47785
45366,47804
45397,47879
45413,47959
45413,48040
45397,48120
45393,48132
45366,48195
45321,48263
45263,48321
45195,48366
45195,48366
45195,48366
45120,48397
45040,48413
44959,48413
44879,48397
44804,48366
44804,48366
44804,48366
44736,48321
44678,48263
44633,48195
44606,48132
44602,48120
44586,48040
44586,47959
44602,47879
44633,47804
44645,47785
44678,47736
44736,47678
44804,47633
44804,47633
44879,47602
44959,47586
45040,47586
45120,47602
Z" /> 
<path style="fill:#000000; fill-opacity:1.0; 
stroke:#000000; stroke-width:0; stroke-opacity:1; 
stroke-linecap:round; stroke-linejoin:round;fill-rule:evenodd;"
d="M 35413,47913
34586,47913
34586,47086
35413,47086
35413,47913
Z" /> 
<path style="fill:#000000; fill-opacity:1.0; 
stroke:#000000; stroke-width:0; stroke-opacity:1; 
stroke-linecap:round; stroke-linejoin:round;fill-rule:evenodd;"
d="M 45120,46602
45189,46630
45195,46633
45263,46678
45321,46736
45366,46804
45397,46879
45413,46959
45413,47040
45397,47120
45366,47195
45366,47195
45321,47263
45263,47321
45195,47366
45195,47366
45195,47366
45120,47397
45040,47413
44959,47413
44879,47397
44804,47366
44804,47366
44804,47366
44736,47321
44678,47263
44633,47195
44633,47195
44602,47120
44586,47040
44586,46959
44602,46879
44633,46804
44678,46736
44736,46678
44804,46633
44810,46630
44879,46602
44959,46586
45040,46586
45120,46602
Z" /> 
<path style="fill:#000000; fill-opacity:1.0; 
stroke:#000000; stroke-width:0; stroke-opacity:1; 
stroke-linecap:round; stroke-linejoin:round;fill-rule:evenodd;"
d="M 35076,46129
35114,46136
35186,46166
35251,46209
35306,46264
35349,46329
35378,46400
35394,46476
35394,46554
35378,46630
35349,46702
35306,46766
35251,46821
35186,46864
35114,46894
35076,46902
35038,46909
34961,46909
34923,46902
34885,46894
34813,46864
34748,46821
34693,46766
34650,46702
34621,46630
34605,46554
34605,46476
34621,46400
34650,46329
34693,46264
34748,46209
34813,46166
34885,46136
34923,46129
34961,46121
35038,46121
35076,46129
Z" /> 
<path style="fill:#000000; fill-opacity:1.0; 
stroke:#000000; stroke-width:0; stroke-opacity:1; 
stroke-linecap:round; stroke-linejoin:round;fill-rule:evenodd;"
d="M 45120,45602
45195,45633
45195,45633
45263,45678
45263,45678
45321,45736
45366,45804
45397,45879
45413,45959
45413,46040
45397,46120
45378,46166
45366,46195
45321,46263
45263,46321
45195,46366
45195,46366
45195,46366
45120,46397
45040,46413
44959,46413
44879,46397
44804,46366
44804,46366
44804,46366
44736,46321
44678,46263
44633,46195
44621,46166
44602,46120
44586,46040
44586,45959
44602,45879
44633,45804
44678,45736
44736,45678
44736,45678
44804,45633
44804,45633
44879,45602
44959,45586
45040,45586
45120,45602
Z" /> 
<path style="fill:#000000; fill-opacity:1.0; 
stroke:#000000; stroke-width:0; stroke-opacity:1; 
stroke-linecap:round; stroke-linejoin:round;fill-rule:evenodd;"
d="M 42619,44901
42678,44912
42789,44958
42889,45025
42974,45110
43041,45210
43087,45321
43087,45321
43110,45439
43110,45560
43102,45602
43087,45678
43041,45789
42974,45889
42889,45974
42789,46041
42678,46087
42619,46098
42560,46110
42439,46110
42380,46098
42321,46087
42210,46041
42110,45974
42025,45889
41958,45789
41912,45678
41897,45602
41889,45560
41889,45439
41912,45321
41912,45321
41958,45210
42025,45110
42110,45025
42210,44958
42321,44912
42380,44901
42439,44889
42560,44889
42619,44901
Z" /> 
<path style="fill:#000000; fill-opacity:1.0; 
stroke:#000000; stroke-width:0; stroke-opacity:1; 
stroke-linecap:round; stroke-linejoin:round;fill-rule:evenodd;"
d="M 101102,44397
101178,44412
101289,44458
101389,44525
101474,44610
101541,44710
101579,44804
101587,44821
101605,44912
101610,44939
101610,45060
101587,45178
101541,45289
101474,45389
101389,45474
101289,45541
101178,45587
101119,45598
101060,45610
100939,45610
100880,45598
100821,45587
100710,45541
100610,45474
100525,45389
100458,45289
100412,45178
100389,45060
100389,44939
100394,44912
100412,44821
100420,44804
100458,44710
100525,44610
100610,44525
100710,44458
100821,44412
100897,44397
100939,44389
101060,44389
101102,44397
Z" /> 
<path style="fill:#000000; fill-opacity:1.0; 
stroke:#000000; stroke-width:0; stroke-opacity:1; 
stroke-linecap:round; stroke-linejoin:round;fill-rule:evenodd;"
d="M 82102,44397
82178,44412
82289,44458
82389,44525
82474,44610
82541,44710
82579,44804
82587,44821
82605,44912
82610,44939
82610,45060
82587,45178
82541,45289
82474,45389
82389,45474
82289,45541
82178,45587
82119,45598
82060,45610
81939,45610
81880,45598
81821,45587
81710,45541
81610,45474
81525,45389
81458,45289
81412,45178
81389,45060
81389,44939
81394,44912
81412,44821
81420,44804
81458,44710
81525,44610
81610,44525
81710,44458
81821,44412
81897,44397
81939,44389
82060,44389
82102,44397
Z" /> 
<path style="fill:#000000; fill-opacity:1.0; 
stroke:#000000; stroke-width:0; stroke-opacity:1; 
stroke-linecap:round; stroke-linejoin:round;fill-rule:evenodd;"
d="M 45120,44602
45195,44633
45195,44633
45263,44678
45321,44736
45366,44804
45397,44879
45413,44959
45413,45040
45397,45120
45374,45178
45366,45195
45321,45263
45263,45321
45195,45366
45195,45366
45195,45366
45120,45397
45040,45413
44959,45413
44879,45397
44804,45366
44804,45366
44804,45366
44736,45321
44678,45263
44633,45195
44625,45178
44602,45120
44586,45040
44586,44959
44602,44879
44633,44804
44678,44736
44736,44678
44804,44633
44804,44633
44879,44602
44959,44586
45040,44586
45120,44602
Z" /> 
<path style="fill:#000000; fill-opacity:1.0; 
stroke:#000000; stroke-width:0; stroke-opacity:1; 
stroke-linecap:round; stroke-linejoin:round;fill-rule:evenodd;"
d="M 48224,43261
48363,43319
48363,43319
48489,43403
48596,43510
48647,43586
48680,43636
48738,43775
48768,43924
48768,44075
48738,44224
48698,44321
48680,44363
48596,44489
48489,44596
48363,44680
48363,44680
48363,44680
48224,44738
48075,44768
47924,44768
47775,44738
47636,44680
47636,44680
47636,44680
47510,44596
47403,44489
47319,44363
47301,44321
47261,44224
47231,44075
47231,43924
47261,43775
47319,43636
47352,43586
47403,43510
47510,43403
47636,43319
47636,43319
47775,43261
47924,43231
48075,43231
48224,43261
Z" /> 
<path style="fill:#000000; fill-opacity:1.0; 
stroke:#000000; stroke-width:0; stroke-opacity:1; 
stroke-linecap:round; stroke-linejoin:round;fill-rule:evenodd;"
d="M 34724,43261
34863,43319
34863,43319
34989,43403
35096,43510
35147,43586
35180,43636
35238,43775
35268,43924
35268,44075
35238,44224
35198,44321
35180,44363
35096,44489
34989,44596
34863,44680
34863,44680
34863,44680
34724,44738
34575,44768
34424,44768
34275,44738
34136,44680
34136,44680
34136,44680
34010,44596
33903,44489
33819,44363
33801,44321
33761,44224
33731,44075
33731,43924
33761,43775
33819,43636
33852,43586
33903,43510
34010,43403
34136,43319
34136,43319
34275,43261
34424,43231
34575,43231
34724,43261
Z" /> 
<path style="fill:#000000; fill-opacity:1.0; 
stroke:#000000; stroke-width:0; stroke-opacity:1; 
stroke-linecap:round; stroke-linejoin:round;fill-rule:evenodd;"
d="M 37619,43401
37678,43412
37789,43458
37889,43525
37974,43610
38041,43710
38073,43789
38087,43821
38110,43939
38110,44060
38100,44110
38087,44178
38041,44289
37974,44389
37889,44474
37789,44541
37678,44587
37630,44596
37560,44610
37439,44610
37369,44596
37321,44587
37210,44541
37110,44474
37025,44389
36958,44289
36912,44178
36899,44110
36889,44060
36889,43939
36912,43821
36926,43789
36958,43710
37025,43610
37110,43525
37210,43458
37321,43412
37380,43401
37439,43389
37560,43389
37619,43401
Z" /> 
<path style="fill:#000000; fill-opacity:1.0; 
stroke:#000000; stroke-width:0; stroke-opacity:1; 
stroke-linecap:round; stroke-linejoin:round;fill-rule:evenodd;"
d="M 45120,43602
45195,43633
45195,43633
45263,43678
45321,43736
45347,43775
45366,43804
45397,43879
45413,43959
45413,44040
45397,44120
45374,44178
45366,44195
45321,44263
45263,44321
45195,44366
45195,44366
45195,44366
45120,44397
45040,44413
44959,44413
44879,44397
44804,44366
44804,44366
44804,44366
44736,44321
44678,44263
44633,44195
44625,44178
44602,44120
44586,44040
44586,43959
44602,43879
44633,43804
44652,43775
44678,43736
44736,43678
44804,43633
44804,43633
44879,43602
44959,43586
45040,43586
45120,43602
Z" /> 
<path style="fill:#000000; fill-opacity:1.0; 
stroke:#000000; stroke-width:0; stroke-opacity:1; 
stroke-linecap:round; stroke-linejoin:round;fill-rule:evenodd;"
d="M 87119,42901
87178,42912
87289,42958
87389,43025
87474,43110
87541,43210
87562,43261
87587,43321
87605,43412
87610,43439
87610,43560
87587,43678
87541,43789
87474,43889
87389,43974
87289,44041
87178,44087
87119,44098
87060,44110
86939,44110
86880,44098
86821,44087
86710,44041
86610,43974
86525,43889
86458,43789
86412,43678
86389,43560
86389,43439
86394,43412
86412,43321
86437,43261
86458,43210
86525,43110
86610,43025
86710,42958
86821,42912
86880,42901
86939,42889
87060,42889
87119,42901
Z" /> 
<path style="fill:#000000; fill-opacity:1.0; 
stroke:#000000; stroke-width:0; stroke-opacity:1; 
stroke-linecap:round; stroke-linejoin:round;fill-rule:evenodd;"
d="M 96119,42901
96178,42912
96289,42958
96389,43025
96474,43110
96541,43210
96562,43261
96587,43321
96605,43412
96610,43439
96610,43560
96587,43678
96541,43789
96474,43889
96389,43974
96289,44041
96178,44087
96119,44098
96060,44110
95939,44110
95880,44098
95821,44087
95710,44041
95610,43974
95525,43889
95458,43789
95412,43678
95389,43560
95389,43439
95394,43412
95412,43321
95437,43261
95458,43210
95525,43110
95610,43025
95710,42958
95821,42912
95880,42901
95939,42889
96060,42889
96119,42901
Z" /> 
<path style="fill:#000000; fill-opacity:1.0; 
stroke:#000000; stroke-width:0; stroke-opacity:1; 
stroke-linecap:round; stroke-linejoin:round;fill-rule:evenodd;"
d="M 80224,41261
80363,41319
80363,41319
80489,41403
80596,41510
80680,41636
80680,41636
80738,41775
80768,41924
80768,42075
80738,42224
80680,42363
80680,42363
80596,42489
80489,42596
80363,42680
80363,42680
80363,42680
80224,42738
80075,42768
79924,42768
79775,42738
79636,42680
79636,42680
79636,42680
79510,42596
79403,42489
79319,42363
79319,42363
79261,42224
79231,42075
79231,41924
79261,41775
79319,41636
79319,41636
79403,41510
79510,41403
79636,41319
79636,41319
79775,41261
79924,41231
80075,41231
80224,41261
Z" /> 
<path style="fill:#000000; fill-opacity:1.0; 
stroke:#000000; stroke-width:0; stroke-opacity:1; 
stroke-linecap:round; stroke-linejoin:round;fill-rule:evenodd;"
d="M 103224,41261
103363,41319
103363,41319
103489,41403
103596,41510
103680,41636
103680,41636
103738,41775
103768,41924
103768,42075
103738,42224
103680,42363
103680,42363
103596,42489
103489,42596
103363,42680
103363,42680
103363,42680
103224,42738
103075,42768
102924,42768
102775,42738
102636,42680
102636,42680
102636,42680
102510,42596
102403,42489
102319,42363
102319,42363
102261,42224
102231,42075
102231,41924
102261,41775
102319,41636
102319,41636
102403,41510
102510,41403
102636,41319
102636,41319
102775,41261
102924,41231
103075,41231
103224,41261
Z" /> 
<path style="fill:#000000; fill-opacity:1.0; 
stroke:#000000; stroke-width:0; stroke-opacity:1; 
stroke-linecap:round; stroke-linejoin:round;fill-rule:evenodd;"
d="M 44724,27761
44843,27811
44863,27819
44989,27903
45096,28010
45180,28136
45180,28136
45238,28275
45268,28424
45268,28575
45238,28724
45186,28849
45180,28863
45096,28989
44989,29096
44863,29180
44863,29180
44863,29180
44724,29238
44575,29268
44424,29268
44275,29238
44136,29180
44136,29180
44136,29180
44010,29096
43903,28989
43819,28863
43813,28849
43761,28724
43731,28575
43731,28424
43761,28275
43819,28136
43819,28136
43903,28010
44010,27903
44136,27819
44156,27811
44275,27761
44424,27731
44575,27731
44724,27761
Z" /> 
<path style="fill:#000000; fill-opacity:1.0; 
stroke:#000000; stroke-width:0; stroke-opacity:1; 
stroke-linecap:round; stroke-linejoin:round;fill-rule:evenodd;"
d="M 85724,27761
85843,27811
85863,27819
85989,27903
86096,28010
86180,28136
86180,28136
86238,28275
86268,28424
86268,28575
86238,28724
86186,28849
86180,28863
86096,28989
85989,29096
85863,29180
85863,29180
85863,29180
85724,29238
85575,29268
85424,29268
85275,29238
85136,29180
85136,29180
85136,29180
85010,29096
84903,28989
84819,28863
84813,28849
84761,28724
84731,28575
84731,28424
84761,28275
84819,28136
84819,28136
84903,28010
85010,27903
85136,27819
85156,27811
85275,27761
85424,27731
85575,27731
85724,27761
Z" /> 
<path style="fill:#000000; fill-opacity:1.0; 
stroke:#000000; stroke-width:0; stroke-opacity:1; 
stroke-linecap:round; stroke-linejoin:round;fill-rule:evenodd;"
d="M 81596,28014
81689,28042
81774,28088
81849,28150
81911,28225
81957,28310
81985,28403
81994,28500
81985,28596
81957,28689
81911,28774
81849,28849
81774,28911
81689,28957
81596,28985
81524,28992
81475,28992
81403,28985
81310,28957
81225,28911
81150,28849
81088,28774
81042,28689
81014,28596
81005,28500
81014,28403
81042,28310
81088,28225
81150,28150
81225,28088
81310,28042
81403,28014
81475,28007
81524,28007
81596,28014
Z" /> 
<path style="fill:#000000; fill-opacity:1.0; 
stroke:#000000; stroke-width:0; stroke-opacity:1; 
stroke-linecap:round; stroke-linejoin:round;fill-rule:evenodd;"
d="M 79596,28014
79689,28042
79774,28088
79849,28150
79911,28225
79957,28310
79985,28403
79994,28500
79985,28596
79957,28689
79911,28774
79849,28849
79774,28911
79689,28957
79596,28985
79524,28992
79475,28992
79403,28985
79310,28957
79225,28911
79150,28849
79088,28774
79042,28689
79014,28596
79005,28500
79014,28403
79042,28310
79088,28225
79150,28150
79225,28088
79310,28042
79403,28014
79475,28007
79524,28007
79596,28014
Z" /> 
<path style="fill:#000000; fill-opacity:1.0; 
stroke:#000000; stroke-width:0; stroke-opacity:1; 
stroke-linecap:round; stroke-linejoin:round;fill-rule:evenodd;"
d="M 77596,28014
77689,28042
77774,28088
77849,28150
77911,28225
77957,28310
77985,28403
77994,28500
77985,28596
77957,28689
77911,28774
77849,28849
77774,28911
77689,28957
77596,28985
77524,28992
77475,28992
77403,28985
77310,28957
77225,28911
77150,28849
77088,28774
77042,28689
77014,28596
77005,28500
77014,28403
77042,28310
77088,28225
77150,28150
77225,28088
77310,28042
77403,28014
77475,28007
77524,28007
77596,28014
Z" /> 
<path style="fill:#000000; fill-opacity:1.0; 
stroke:#000000; stroke-width:0; stroke-opacity:1; 
stroke-linecap:round; stroke-linejoin:round;fill-rule:evenodd;"
d="M 70143,27884
70233,27921
70313,27975
70382,28044
70382,28044
70436,28124
70441,28136
70473,28214
70492,28309
70492,28406
70473,28501
70436,28591
70382,28672
70313,28740
70233,28794
70233,28794
70233,28794
70143,28831
70048,28850
69951,28850
69856,28831
69766,28794
69766,28794
69766,28794
69686,28740
69617,28672
69563,28591
69526,28501
69507,28406
69507,28309
69526,28214
69558,28136
69563,28124
69617,28044
69617,28044
69686,27975
69766,27921
69856,27884
69951,27865
70048,27865
70143,27884
Z" /> 
<path style="fill:#000000; fill-opacity:1.0; 
stroke:#000000; stroke-width:0; stroke-opacity:1; 
stroke-linecap:round; stroke-linejoin:round;fill-rule:evenodd;"
d="M 73143,27884
73233,27921
73313,27975
73382,28044
73382,28044
73436,28124
73441,28136
73473,28214
73492,28309
73492,28406
73473,28501
73436,28591
73382,28672
73313,28740
73233,28794
73233,28794
73233,28794
73143,28831
73048,28850
72951,28850
72856,28831
72766,28794
72766,28794
72766,28794
72686,28740
72617,28672
72563,28591
72526,28501
72507,28406
72507,28309
72526,28214
72558,28136
72563,28124
72617,28044
72617,28044
72686,27975
72766,27921
72856,27884
72951,27865
73048,27865
73143,27884
Z" /> 
<path style="fill:#000000; fill-opacity:1.0; 
stroke:#000000; stroke-width:0; stroke-opacity:1; 
stroke-linecap:round; stroke-linejoin:round;fill-rule:evenodd;"
d="M 67143,27884
67233,27921
67313,27975
67382,28044
67382,28044
67436,28124
67441,28136
67473,28214
67492,28309
67492,28406
67473,28501
67436,28591
67382,28672
67313,28740
67233,28794
67233,28794
67233,28794
67143,28831
67048,28850
66951,28850
66856,28831
66766,28794
66766,28794
66766,28794
66686,28740
66617,28672
66563,28591
66526,28501
66507,28406
66507,28309
66526,28214
66558,28136
66563,28124
66617,28044
66617,28044
66686,27975
66766,27921
66856,27884
66951,27865
67048,27865
67143,27884
Z" /> 
<path style="fill:#000000; fill-opacity:1.0; 
stroke:#000000; stroke-width:0; stroke-opacity:1; 
stroke-linecap:round; stroke-linejoin:round;fill-rule:evenodd;"
d="M 75565,27169
75628,27188
75681,27216
75687,27220
75738,27261
75779,27312
75779,27312
75811,27371
75830,27434
75836,27500
75830,27565
75811,27628
75783,27681
75779,27687
75738,27738
75687,27779
75687,27779
75628,27811
75565,27830
75516,27835
75483,27835
75434,27830
75371,27811
75312,27779
75312,27779
75261,27738
75220,27687
75216,27681
75188,27628
75169,27565
75163,27500
75169,27434
75188,27371
75220,27312
75220,27312
75261,27261
75312,27220
75318,27216
75371,27188
75434,27169
75483,27164
75516,27164
75565,27169
Z" /> 
<path style="fill:#000000; fill-opacity:1.0; 
stroke:#000000; stroke-width:0; stroke-opacity:1; 
stroke-linecap:round; stroke-linejoin:round;fill-rule:evenodd;"
d="M 84606,25133
84672,25161
84732,25201
84783,25251
84823,25311
84850,25377
84864,25448
84864,25520
84850,25590
84823,25656
84783,25716
84732,25767
84672,25807
84606,25834
84535,25848
84464,25848
84393,25834
84327,25807
84267,25767
84216,25716
84176,25656
84149,25590
84135,25520
84135,25448
84149,25377
84176,25311
84216,25251
84267,25201
84327,25161
84393,25133
84464,25119
84535,25119
84606,25133
Z" /> 
<path style="fill:#000000; fill-opacity:1.0; 
stroke:#000000; stroke-width:0; stroke-opacity:1; 
stroke-linecap:round; stroke-linejoin:round;fill-rule:evenodd;"
d="M 84864,24864
84135,24864
84135,24135
84864,24135
84864,24864
Z" /> 
<path style="fill:#000000; fill-opacity:1.0; 
stroke:#000000; stroke-width:0; stroke-opacity:1; 
stroke-linecap:round; stroke-linejoin:round;fill-rule:evenodd;"
d="M 75597,23177
75658,23203
75713,23239
75760,23286
75796,23341
75822,23402
75835,23467
75835,23532
75822,23597
75796,23658
75760,23713
75713,23760
75658,23796
75597,23822
75532,23835
75467,23835
75402,23822
75341,23796
75286,23760
75239,23713
75203,23658
75177,23597
75164,23532
75164,23467
75177,23402
75203,23341
75239,23286
75286,23239
75341,23203
75402,23177
75467,23164
75532,23164
75597,23177
Z" /> 
<path style="fill:#000000; fill-opacity:1.0; 
stroke:#000000; stroke-width:0; stroke-opacity:1; 
stroke-linecap:round; stroke-linejoin:round;fill-rule:evenodd;"
d="M 77596,21014
77689,21042
77774,21088
77849,21150
77911,21225
77957,21310
77985,21403
77994,21500
77985,21596
77957,21689
77911,21774
77849,21849
77774,21911
77689,21957
77689,21957
77688,21957
77680,21963
77673,21970
77668,21978
77664,21986
77662,21996
77662,22006
77664,22015
77668,22024
77673,22032
77680,22039
77692,22046
77733,22063
77733,22063
77813,22117
77882,22186
77905,22220
77936,22266
77973,22356
77992,22451
77992,22548
77989,22565
77973,22643
77936,22733
77882,22813
77813,22882
77733,22936
77733,22936
77733,22936
77643,22973
77548,22992
77451,22992
77356,22973
77266,22936
77266,22936
77266,22936
77186,22882
77117,22813
77063,22733
77026,22643
77010,22565
77007,22548
77007,22451
77026,22356
77063,22266
77094,22220
77117,22186
77186,22117
77266,22063
77266,22063
77307,22046
77315,22042
77323,22036
77329,22028
77333,22020
77336,22010
77337,22001
77336,21991
77333,21982
77329,21973
77323,21966
77311,21957
77310,21957
77310,21957
77225,21911
77150,21849
77088,21774
77042,21689
77014,21596
77005,21500
77014,21403
77042,21310
77088,21225
77150,21150
77225,21088
77310,21042
77403,21014
77475,21007
77524,21007
77596,21014
Z" /> 
<path style="fill:#000000; fill-opacity:1.0; 
stroke:#000000; stroke-width:0; stroke-opacity:1; 
stroke-linecap:round; stroke-linejoin:round;fill-rule:evenodd;"
d="M 79596,21014
79689,21042
79774,21088
79849,21150
79911,21225
79957,21310
79985,21403
79994,21500
79985,21596
79957,21689
79911,21774
79849,21849
79774,21911
79689,21957
79689,21957
79688,21957
79680,21963
79673,21970
79668,21978
79664,21986
79662,21996
79662,22006
79664,22015
79668,22024
79673,22032
79680,22039
79692,22046
79733,22063
79733,22063
79813,22117
79882,22186
79905,22220
79936,22266
79973,22356
79992,22451
79992,22548
79989,22565
79973,22643
79936,22733
79882,22813
79813,22882
79733,22936
79733,22936
79733,22936
79643,22973
79548,22992
79451,22992
79356,22973
79266,22936
79266,22936
79266,22936
79186,22882
79117,22813
79063,22733
79026,22643
79010,22565
79007,22548
79007,22451
79026,22356
79063,22266
79094,22220
79117,22186
79186,22117
79266,22063
79266,22063
79307,22046
79315,22042
79323,22036
79329,22028
79333,22020
79336,22010
79337,22001
79336,21991
79333,21982
79329,21973
79323,21966
79311,21957
79310,21957
79310,21957
79225,21911
79150,21849
79088,21774
79042,21689
79014,21596
79005,21500
79014,21403
79042,21310
79088,21225
79150,21150
79225,21088
79310,21042
79403,21014
79475,21007
79524,21007
79596,21014
Z" /> 
<path style="fill:#000000; fill-opacity:1.0; 
stroke:#000000; stroke-width:0; stroke-opacity:1; 
stroke-linecap:round; stroke-linejoin:round;fill-rule:evenodd;"
d="M 81596,21014
81689,21042
81774,21088
81849,21150
81911,21225
81957,21310
81985,21403
81994,21500
81985,21596
81957,21689
81911,21774
81849,21849
81774,21911
81689,21957
81689,21957
81688,21957
81680,21963
81673,21970
81668,21978
81664,21986
81662,21996
81662,22006
81664,22015
81668,22024
81673,22032
81680,22039
81692,22046
81733,22063
81733,22063
81813,22117
81882,22186
81905,22220
81936,22266
81973,22356
81992,22451
81992,22548
81989,22565
81973,22643
81936,22733
81882,22813
81813,22882
81733,22936
81733,22936
81733,22936
81643,22973
81548,22992
81451,22992
81356,22973
81266,22936
81266,22936
81266,22936
81186,22882
81117,22813
81063,22733
81026,22643
81010,22565
81007,22548
81007,22451
81026,22356
81063,22266
81094,22220
81117,22186
81186,22117
81266,22063
81266,22063
81307,22046
81315,22042
81323,22036
81329,22028
81333,22020
81336,22010
81337,22001
81336,21991
81333,21982
81329,21973
81323,21966
81311,21957
81310,21957
81310,21957
81225,21911
81150,21849
81088,21774
81042,21689
81014,21596
81005,21500
81014,21403
81042,21310
81088,21225
81150,21150
81225,21088
81310,21042
81403,21014
81475,21007
81524,21007
81596,21014
Z" /> 
<path style="fill:#000000; fill-opacity:1.0; 
stroke:#000000; stroke-width:0; stroke-opacity:1; 
stroke-linecap:round; stroke-linejoin:round;fill-rule:evenodd;"
d="M 75565,22169
75628,22188
75681,22216
75687,22220
75738,22261
75779,22312
75779,22312
75811,22371
75830,22434
75836,22500
75830,22565
75811,22628
75783,22681
75779,22687
75738,22738
75687,22779
75687,22779
75628,22811
75565,22830
75516,22835
75483,22835
75434,22830
75371,22811
75312,22779
75312,22779
75261,22738
75220,22687
75216,22681
75188,22628
75169,22565
75163,22500
75169,22434
75188,22371
75220,22312
75220,22312
75261,22261
75312,22220
75318,22216
75371,22188
75434,22169
75483,22164
75516,22164
75565,22169
Z" /> 
<path style="fill:#000000; fill-opacity:1.0; 
stroke:#000000; stroke-width:0; stroke-opacity:1; 
stroke-linecap:round; stroke-linejoin:round;fill-rule:evenodd;"
d="M 73143,19026
73233,19063
73313,19117
73382,19186
73382,19186
73436,19266
73473,19356
73492,19451
73492,19548
73473,19643
73457,19683
73436,19733
73382,19813
73313,19882
73233,19936
73233,19936
73233,19936
73143,19973
73048,19992
72951,19992
72856,19973
72766,19936
72766,19936
72766,19936
72686,19882
72617,19813
72563,19733
72542,19683
72526,19643
72507,19548
72507,19451
72526,19356
72563,19266
72617,19186
72617,19186
72686,19117
72766,19063
72856,19026
72951,19007
73048,19007
73143,19026
Z" /> 
<path style="fill:#000000; fill-opacity:1.0; 
stroke:#000000; stroke-width:0; stroke-opacity:1; 
stroke-linecap:round; stroke-linejoin:round;fill-rule:evenodd;"
d="M 70143,19026
70233,19063
70313,19117
70382,19186
70382,19186
70436,19266
70473,19356
70492,19451
70492,19548
70473,19643
70457,19683
70436,19733
70382,19813
70313,19882
70233,19936
70233,19936
70233,19936
70143,19973
70048,19992
69951,19992
69856,19973
69766,19936
69766,19936
69766,19936
69686,19882
69617,19813
69563,19733
69542,19683
69526,19643
69507,19548
69507,19451
69526,19356
69563,19266
69617,19186
69617,19186
69686,19117
69766,19063
69856,19026
69951,19007
70048,19007
70143,19026
Z" /> 
<path style="fill:#000000; fill-opacity:1.0; 
stroke:#000000; stroke-width:0; stroke-opacity:1; 
stroke-linecap:round; stroke-linejoin:round;fill-rule:evenodd;"
d="M 67143,19026
67233,19063
67313,19117
67382,19186
67382,19186
67436,19266
67473,19356
67492,19451
67492,19548
67473,19643
67457,19683
67436,19733
67382,19813
67313,19882
67233,19936
67233,19936
67233,19936
67143,19973
67048,19992
66951,19992
66856,19973
66766,19936
66766,19936
66766,19936
66686,19882
66617,19813
66563,19733
66542,19683
66526,19643
66507,19548
66507,19451
66526,19356
66563,19266
66617,19186
66617,19186
66686,19117
66766,19063
66856,19026
66951,19007
67048,19007
67143,19026
Z" /> 
<path style="fill:#000000; fill-opacity:1.0; 
stroke:#000000; stroke-width:0; stroke-opacity:1; 
stroke-linecap:round; stroke-linejoin:round;fill-rule:evenodd;"
d="M 84453,19953
83546,19953
83546,19046
84453,19046
84453,19953
Z" /> 
<path style="fill:#000000; fill-opacity:1.0; 
stroke:#000000; stroke-width:0; stroke-opacity:1; 
stroke-linecap:round; stroke-linejoin:round;fill-rule:evenodd;"
d="M 49588,19024
49632,19032
49714,19066
49788,19116
49851,19179
49901,19253
49901,19253
49911,19278
49935,19336
49953,19423
49953,19513
49935,19600
49901,19683
49851,19757
49788,19820
49714,19870
49632,19904
49588,19912
49544,19921
49455,19921
49411,19912
49367,19904
49285,19870
49211,19820
49148,19757
49098,19683
49064,19600
49046,19513
49046,19423
49064,19336
49088,19278
49098,19253
49098,19253
49148,19179
49211,19116
49285,19066
49367,19032
49411,19024
49455,19015
49544,19015
49588,19024
Z" /> 
<path style="fill:#000000; fill-opacity:1.0; 
stroke:#000000; stroke-width:0; stroke-opacity:1; 
stroke-linecap:round; stroke-linejoin:round;fill-rule:evenodd;"
d="M 75597,18177
75658,18203
75713,18239
75760,18286
75796,18341
75822,18402
75835,18467
75835,18532
75822,18597
75796,18658
75760,18713
75713,18760
75658,18796
75597,18822
75532,18835
75467,18835
75402,18822
75341,18796
75286,18760
75239,18713
75203,18658
75177,18597
75164,18532
75164,18467
75177,18402
75203,18341
75239,18286
75286,18239
75341,18203
75402,18177
75467,18164
75532,18164
75597,18177
Z" /> 
<path style="fill:#000000; fill-opacity:1.0; 
stroke:#000000; stroke-width:0; stroke-opacity:1; 
stroke-linecap:round; stroke-linejoin:round;fill-rule:evenodd;"
d="M 84088,17087
84132,17095
84214,17129
84288,17179
84351,17242
84401,17316
84435,17399
84453,17486
84453,17576
84435,17663
84401,17746
84351,17820
84288,17883
84214,17933
84132,17967
84088,17975
84044,17984
83955,17984
83911,17975
83867,17967
83785,17933
83711,17883
83648,17820
83598,17746
83564,17663
83546,17576
83546,17486
83564,17399
83598,17316
83648,17242
83711,17179
83785,17129
83867,17095
83911,17087
83955,17078
84044,17078
84088,17087
Z" /> 
<path style="fill:#000000; fill-opacity:1.0; 
stroke:#000000; stroke-width:0; stroke-opacity:1; 
stroke-linecap:round; stroke-linejoin:round;fill-rule:evenodd;"
d="M 49588,17055
49632,17064
49714,17098
49788,17148
49851,17211
49901,17285
49935,17367
49953,17455
49953,17544
49935,17632
49901,17714
49851,17788
49788,17851
49714,17901
49632,17935
49588,17944
49544,17953
49455,17953
49411,17944
49367,17935
49285,17901
49211,17851
49148,17788
49098,17714
49064,17632
49046,17544
49046,17455
49064,17367
49098,17285
49148,17211
49211,17148
49285,17098
49367,17064
49411,17055
49455,17046
49544,17046
49588,17055
Z" /> 
<path style="fill:#000000; fill-opacity:1.0; 
stroke:#000000; stroke-width:0; stroke-opacity:1; 
stroke-linecap:round; stroke-linejoin:round;fill-rule:evenodd;"
d="M 73143,16884
73233,16921
73313,16975
73382,17044
73418,17098
73436,17124
73473,17214
73487,17285
73492,17309
73492,17406
73473,17501
73436,17591
73382,17672
73313,17740
73233,17794
73233,17794
73233,17794
73143,17831
73048,17850
72951,17850
72856,17831
72766,17794
72766,17794
72766,17794
72686,17740
72617,17672
72563,17591
72526,17501
72507,17406
72507,17309
72512,17285
72526,17214
72563,17124
72581,17098
72617,17044
72686,16975
72766,16921
72856,16884
72951,16865
73048,16865
73143,16884
Z" /> 
<path style="fill:#000000; fill-opacity:1.0; 
stroke:#000000; stroke-width:0; stroke-opacity:1; 
stroke-linecap:round; stroke-linejoin:round;fill-rule:evenodd;"
d="M 70143,16884
70233,16921
70313,16975
70382,17044
70418,17098
70436,17124
70473,17214
70487,17285
70492,17309
70492,17406
70473,17501
70436,17591
70382,17672
70313,17740
70233,17794
70233,17794
70233,17794
70143,17831
70048,17850
69951,17850
69856,17831
69766,17794
69766,17794
69766,17794
69686,17740
69617,17672
69563,17591
69526,17501
69507,17406
69507,17309
69512,17285
69526,17214
69563,17124
69581,17098
69617,17044
69686,16975
69766,16921
69856,16884
69951,16865
70048,16865
70143,16884
Z" /> 
<path style="fill:#000000; fill-opacity:1.0; 
stroke:#000000; stroke-width:0; stroke-opacity:1; 
stroke-linecap:round; stroke-linejoin:round;fill-rule:evenodd;"
d="M 67143,16884
67233,16921
67313,16975
67382,17044
67418,17098
67436,17124
67473,17214
67487,17285
67492,17309
67492,17406
67473,17501
67436,17591
67382,17672
67313,17740
67233,17794
67233,17794
67233,17794
67143,17831
67048,17850
66951,17850
66856,17831
66766,17794
66766,17794
66766,17794
66686,17740
66617,17672
66563,17591
66526,17501
66507,17406
66507,17309
66512,17285
66526,17214
66563,17124
66581,17098
66617,17044
66686,16975
66766,16921
66856,16884
66951,16865
67048,16865
67143,16884
Z" /> 
<path style="fill:#000000; fill-opacity:1.0; 
stroke:#000000; stroke-width:0; stroke-opacity:1; 
stroke-linecap:round; stroke-linejoin:round;fill-rule:evenodd;"
d="M 75565,17169
75628,17188
75670,17211
75687,17220
75738,17261
75779,17312
75779,17312
75811,17371
75830,17434
75836,17500
75830,17565
75811,17628
75792,17663
75779,17687
75738,17738
75687,17779
75687,17779
75628,17811
75565,17830
75516,17835
75483,17835
75434,17830
75371,17811
75312,17779
75312,17779
75261,17738
75220,17687
75207,17663
75188,17628
75169,17565
75163,17500
75169,17434
75188,17371
75220,17312
75220,17312
75261,17261
75312,17220
75329,17211
75371,17188
75434,17169
75483,17164
75516,17164
75565,17169
Z" /> 
<path style="fill:#000000; fill-opacity:1.0; 
stroke:#000000; stroke-width:0; stroke-opacity:1; 
stroke-linecap:round; stroke-linejoin:round;fill-rule:evenodd;"
d="M 77596,14014
77689,14042
77774,14088
77849,14150
77911,14225
77957,14310
77985,14403
77994,14500
77985,14596
77957,14689
77911,14774
77849,14849
77774,14911
77689,14957
77689,14957
77688,14957
77680,14963
77673,14970
77668,14978
77664,14986
77662,14996
77662,15006
77664,15015
77668,15024
77673,15032
77680,15039
77692,15046
77733,15063
77733,15063
77813,15117
77882,15186
77936,15266
77973,15356
77992,15451
77992,15548
77973,15643
77936,15733
77882,15813
77813,15882
77733,15936
77733,15936
77733,15936
77643,15973
77548,15992
77451,15992
77356,15973
77266,15936
77266,15936
77266,15936
77186,15882
77117,15813
77063,15733
77026,15643
77007,15548
77007,15451
77026,15356
77063,15266
77117,15186
77186,15117
77266,15063
77266,15063
77307,15046
77315,15042
77323,15036
77329,15028
77333,15020
77336,15010
77337,15001
77336,14991
77333,14982
77329,14973
77323,14966
77311,14957
77310,14957
77310,14957
77225,14911
77150,14849
77088,14774
77042,14689
77014,14596
77005,14500
77014,14403
77042,14310
77088,14225
77150,14150
77225,14088
77310,14042
77403,14014
77475,14007
77524,14007
77596,14014
Z" /> 
<path style="fill:#000000; fill-opacity:1.0; 
stroke:#000000; stroke-width:0; stroke-opacity:1; 
stroke-linecap:round; stroke-linejoin:round;fill-rule:evenodd;"
d="M 79596,14014
79689,14042
79774,14088
79849,14150
79911,14225
79957,14310
79985,14403
79994,14500
79985,14596
79957,14689
79911,14774
79849,14849
79774,14911
79689,14957
79689,14957
79688,14957
79680,14963
79673,14970
79668,14978
79664,14986
79662,14996
79662,15006
79664,15015
79668,15024
79673,15032
79680,15039
79692,15046
79733,15063
79733,15063
79813,15117
79882,15186
79936,15266
79973,15356
79992,15451
79992,15548
79973,15643
79936,15733
79882,15813
79813,15882
79733,15936
79733,15936
79733,15936
79643,15973
79548,15992
79451,15992
79356,15973
79266,15936
79266,15936
79266,15936
79186,15882
79117,15813
79063,15733
79026,15643
79007,15548
79007,15451
79026,15356
79063,15266
79117,15186
79186,15117
79266,15063
79266,15063
79307,15046
79315,15042
79323,15036
79329,15028
79333,15020
79336,15010
79337,15001
79336,14991
79333,14982
79329,14973
79323,14966
79311,14957
79310,14957
79310,14957
79225,14911
79150,14849
79088,14774
79042,14689
79014,14596
79005,14500
79014,14403
79042,14310
79088,14225
79150,14150
79225,14088
79310,14042
79403,14014
79475,14007
79524,14007
79596,14014
Z" /> 
<path style="fill:#000000; fill-opacity:1.0; 
stroke:#000000; stroke-width:0; stroke-opacity:1; 
stroke-linecap:round; stroke-linejoin:round;fill-rule:evenodd;"
d="M 81596,14014
81689,14042
81774,14088
81849,14150
81911,14225
81957,14310
81985,14403
81994,14500
81985,14596
81957,14689
81911,14774
81849,14849
81774,14911
81689,14957
81689,14957
81688,14957
81680,14963
81673,14970
81668,14978
81664,14986
81662,14996
81662,15006
81664,15015
81668,15024
81673,15032
81680,15039
81692,15046
81733,15063
81733,15063
81813,15117
81882,15186
81936,15266
81973,15356
81992,15451
81992,15548
81973,15643
81936,15733
81882,15813
81813,15882
81733,15936
81733,15936
81733,15936
81643,15973
81548,15992
81451,15992
81356,15973
81266,15936
81266,15936
81266,15936
81186,15882
81117,15813
81063,15733
81026,15643
81007,15548
81007,15451
81026,15356
81063,15266
81117,15186
81186,15117
81266,15063
81266,15063
81307,15046
81315,15042
81323,15036
81329,15028
81333,15020
81336,15010
81337,15001
81336,14991
81333,14982
81329,14973
81323,14966
81311,14957
81310,14957
81310,14957
81225,14911
81150,14849
81088,14774
81042,14689
81014,14596
81005,14500
81014,14403
81042,14310
81088,14225
81150,14150
81225,14088
81310,14042
81403,14014
81475,14007
81524,14007
81596,14014
Z" /> 
<path style="fill:#000000; fill-opacity:1.0; 
stroke:#000000; stroke-width:0; stroke-opacity:1; 
stroke-linecap:round; stroke-linejoin:round;fill-rule:evenodd;"
d="M 75597,13177
75658,13203
75713,13239
75760,13286
75796,13341
75822,13402
75835,13467
75835,13532
75822,13597
75796,13658
75760,13713
75713,13760
75658,13796
75597,13822
75532,13835
75467,13835
75402,13822
75341,13796
75286,13760
75239,13713
75203,13658
75177,13597
75164,13532
75164,13467
75177,13402
75203,13341
75239,13286
75286,13239
75341,13203
75402,13177
75467,13164
75532,13164
75597,13177
Z" /> 
<path style="fill:#000000; fill-opacity:1.0; 
stroke:#000000; stroke-width:0; stroke-opacity:1; 
stroke-linecap:round; stroke-linejoin:round;fill-rule:evenodd;"
d="M 75565,12169
75628,12188
75681,12216
75687,12220
75738,12261
75779,12312
75779,12312
75811,12371
75830,12434
75836,12500
75830,12565
75811,12628
75783,12681
75779,12687
75738,12738
75687,12779
75687,12779
75628,12811
75565,12830
75516,12835
75483,12835
75434,12830
75371,12811
75312,12779
75312,12779
75261,12738
75220,12687
75216,12681
75188,12628
75169,12565
75163,12500
75169,12434
75188,12371
75220,12312
75220,12312
75261,12261
75312,12220
75318,12216
75371,12188
75434,12169
75483,12164
75516,12164
75565,12169
Z" /> 
<path style="fill:#000000; fill-opacity:1.0; 
stroke:#000000; stroke-width:0; stroke-opacity:1; 
stroke-linecap:round; stroke-linejoin:round;fill-rule:evenodd;"
d="M 79643,8026
79733,8063
79813,8117
79882,8186
79936,8266
79973,8356
79992,8451
79992,8548
79973,8643
79936,8733
79882,8813
79813,8882
79733,8936
79733,8936
79733,8936
79643,8973
79548,8992
79451,8992
79356,8973
79266,8936
79266,8936
79266,8936
79186,8882
79117,8813
79063,8733
79026,8643
79007,8548
79007,8451
79026,8356
79063,8266
79117,8186
79186,8117
79266,8063
79356,8026
79451,8007
79548,8007
79643,8026
Z" /> 
<path style="fill:#000000; fill-opacity:1.0; 
stroke:#000000; stroke-width:0; stroke-opacity:1; 
stroke-linecap:round; stroke-linejoin:round;fill-rule:evenodd;"
d="M 70143,8026
70233,8063
70313,8117
70382,8186
70436,8266
70473,8356
70492,8451
70492,8548
70473,8643
70436,8733
70382,8813
70313,8882
70233,8936
70233,8936
70233,8936
70143,8973
70048,8992
69951,8992
69856,8973
69766,8936
69766,8936
69766,8936
69686,8882
69617,8813
69563,8733
69526,8643
69507,8548
69507,8451
69526,8356
69563,8266
69617,8186
69686,8117
69766,8063
69856,8026
69951,8007
70048,8007
70143,8026
Z" /> 
<path style="fill:#000000; fill-opacity:1.0; 
stroke:#000000; stroke-width:0; stroke-opacity:1; 
stroke-linecap:round; stroke-linejoin:round;fill-rule:evenodd;"
d="M 81643,8026
81733,8063
81813,8117
81882,8186
81936,8266
81973,8356
81992,8451
81992,8548
81973,8643
81936,8733
81882,8813
81813,8882
81733,8936
81733,8936
81733,8936
81643,8973
81548,8992
81451,8992
81356,8973
81266,8936
81266,8936
81266,8936
81186,8882
81117,8813
81063,8733
81026,8643
81007,8548
81007,8451
81026,8356
81063,8266
81117,8186
81186,8117
81266,8063
81356,8026
81451,8007
81548,8007
81643,8026
Z" /> 
<path style="fill:#000000; fill-opacity:1.0; 
stroke:#000000; stroke-width:0; stroke-opacity:1; 
stroke-linecap:round; stroke-linejoin:round;fill-rule:evenodd;"
d="M 77643,8026
77733,8063
77813,8117
77882,8186
77936,8266
77973,8356
77992,8451
77992,8548
77973,8643
77936,8733
77882,8813
77813,8882
77733,8936
77733,8936
77733,8936
77643,8973
77548,8992
77451,8992
77356,8973
77266,8936
77266,8936
77266,8936
77186,8882
77117,8813
77063,8733
77026,8643
77007,8548
77007,8451
77026,8356
77063,8266
77117,8186
77186,8117
77266,8063
77356,8026
77451,8007
77548,8007
77643,8026
Z" /> 
<path style="fill:#000000; fill-opacity:1.0; 
stroke:#000000; stroke-width:0; stroke-opacity:1; 
stroke-linecap:round; stroke-linejoin:round;fill-rule:evenodd;"
d="M 73143,8026
73233,8063
73313,8117
73382,8186
73436,8266
73473,8356
73492,8451
73492,8548
73473,8643
73436,8733
73382,8813
73313,8882
73233,8936
73233,8936
73233,8936
73143,8973
73048,8992
72951,8992
72856,8973
72766,8936
72766,8936
72766,8936
72686,8882
72617,8813
72563,8733
72526,8643
72507,8548
72507,8451
72526,8356
72563,8266
72617,8186
72686,8117
72766,8063
72856,8026
72951,8007
73048,8007
73143,8026
Z" /> 
<path style="fill:#000000; fill-opacity:1.0; 
stroke:#000000; stroke-width:0; stroke-opacity:1; 
stroke-linecap:round; stroke-linejoin:round;fill-rule:evenodd;"
d="M 67143,8026
67233,8063
67313,8117
67382,8186
67436,8266
67473,8356
67492,8451
67492,8548
67473,8643
67436,8733
67382,8813
67313,8882
67233,8936
67233,8936
67233,8936
67143,8973
67048,8992
66951,8992
66856,8973
66766,8936
66766,8936
66766,8936
66686,8882
66617,8813
66563,8733
66526,8643
66507,8548
66507,8451
66526,8356
66563,8266
66617,8186
66686,8117
66766,8063
66856,8026
66951,8007
67048,8007
67143,8026
Z" /> 
<path style="fill:#000000; fill-opacity:1.0; 
stroke:#000000; stroke-width:0; stroke-opacity:1; 
stroke-linecap:round; stroke-linejoin:round;fill-rule:evenodd;"
d="M 75597,8177
75658,8203
75713,8239
75760,8286
75796,8341
75822,8402
75835,8467
75835,8532
75822,8597
75796,8658
75760,8713
75713,8760
75658,8796
75597,8822
75532,8835
75467,8835
75402,8822
75341,8796
75286,8760
75239,8713
75203,8658
75177,8597
75164,8532
75164,8467
75177,8402
75203,8341
75239,8286
75286,8239
75341,8203
75402,8177
75467,8164
75532,8164
75597,8177
Z" /> 
<path style="fill:#000000; fill-opacity:1.0; 
stroke:#000000; stroke-width:0; stroke-opacity:1; 
stroke-linecap:round; stroke-linejoin:round;fill-rule:evenodd;"
d="M 85724,5761
85863,5819
85863,5819
85989,5903
86096,6010
86180,6136
86180,6136
86238,6275
86268,6424
86268,6575
86238,6724
86180,6863
86180,6863
86096,6989
85989,7096
85863,7180
85863,7180
85863,7180
85724,7238
85575,7268
85424,7268
85275,7238
85136,7180
85136,7180
85136,7180
85010,7096
84903,6989
84819,6863
84819,6863
84761,6724
84731,6575
84731,6424
84761,6275
84819,6136
84819,6136
84903,6010
85010,5903
85136,5819
85136,5819
85275,5761
85424,5731
85575,5731
85724,5761
Z" /> 
<path style="fill:#000000; fill-opacity:1.0; 
stroke:#000000; stroke-width:0; stroke-opacity:1; 
stroke-linecap:round; stroke-linejoin:round;fill-rule:evenodd;"
d="M 44724,5761
44863,5819
44863,5819
44989,5903
45096,6010
45180,6136
45180,6136
45238,6275
45268,6424
45268,6575
45238,6724
45180,6863
45180,6863
45096,6989
44989,7096
44863,7180
44863,7180
44863,7180
44724,7238
44575,7268
44424,7268
44275,7238
44136,7180
44136,7180
44136,7180
44010,7096
43903,6989
43819,6863
43819,6863
43761,6724
43731,6575
43731,6424
43761,6275
43819,6136
43819,6136
43903,6010
44010,5903
44136,5819
44136,5819
44275,5761
44424,5731
44575,5731
44724,5761
Z" /> 
</g> 
</svg>
