<?xml version="1.0" standalone="no"?>
 <!DOCTYPE svg PUBLIC "-//W3C//DTD SVG 1.1//EN" 
 "http://www.w3.org/Graphics/SVG/1.1/DTD/svg11.dtd"> 
<svg xmlns="http://www.w3.org/2000/svg" version="1.1" 
    width="29.7002cm" height="21.0007cm" viewBox="0 0 116930 82680 ">
<title>SVG Picture created as Millikan-F_SilkS.svg date 2019/09/08 14:03:04 </title>
  <desc>Picture generated by PCBNEW </desc>
<g style="fill:#000000; fill-opacity:1;stroke:#000000; stroke-opacity:1;
stroke-linecap:round; stroke-linejoin:round; "
 transform="translate(0 0) scale(1 1)">
</g>
<g style="fill:#000000; fill-opacity:0.0; 
stroke:#000000; stroke-width:-0.000393701; stroke-opacity:1; 
stroke-linecap:round; stroke-linejoin:round;">
</g>
<g style="fill:#000000; fill-opacity:0.0; 
stroke:#000000; stroke-width:19.685; stroke-opacity:1; 
stroke-linecap:round; stroke-linejoin:round;">
<circle cx="104500" cy="40500" r="656.168" /> 
<path d="M103515 40500
L105484 40500
" />
<path d="M104500 39515
L104500 41484
" />
<circle cx="78500" cy="70500" r="656.168" /> 
<path d="M77515 70500
L79484 70500
" />
<path d="M78500 69515
L78500 71484
" />
<circle cx="49500" cy="64500" r="656.168" /> 
<path d="M48515 64500
L50484 64500
" />
<path d="M49500 63515
L49500 65484
" />
<circle cx="33000" cy="42500" r="656.168" /> 
<path d="M32015 42500
L33984 42500
" />
<path d="M33000 41515
L33000 43484
" />
<circle cx="42500" cy="33000" r="656.168" /> 
<path d="M41515 33000
L43484 33000
" />
<path d="M42500 32015
L42500 33984
" />
<circle cx="90000" cy="1500" r="656.168" /> 
<path d="M89015 1500
L90984 1500
" />
<path d="M90000 515
L90000 2484
" />
<circle cx="42500" cy="1500" r="656.168" /> 
<path d="M41515 1500
L43484 1500
" />
<path d="M42500 515
L42500 2484
" />
<circle cx="90000" cy="33000" r="656.168" /> 
<path d="M89015 33000
L90984 33000
" />
<path d="M90000 32015
L90000 33984
" />
<circle cx="104500" cy="70500" r="656.168" /> 
<path d="M103515 70500
L105484 70500
" />
<path d="M104500 69515
L104500 71484
" />
<circle cx="78500" cy="40500" r="656.168" /> 
<path d="M77515 40500
L79484 40500
" />
<path d="M78500 39515
L78500 41484
" />
<circle cx="33000" cy="64500" r="656.168" /> 
<path d="M32015 64500
L33984 64500
" />
<path d="M33000 63515
L33000 65484
" />
<circle cx="49500" cy="42500" r="656.168" /> 
<path d="M48515 42500
L50484 42500
" />
<path d="M49500 41515
L49500 43484
" />
<path d="M90000 33000
L90000 1500
" />
<path d="M42500 33000
L90000 33000
" />
<path d="M42500 1500
L42500 33000
" />
<path d="M90000 1500
L42500 1500
" />
<path d="M104500 40500
L104500 70500
" />
<path d="M78500 40500
L104500 40500
" />
<path d="M78500 70500
L78500 40500
" />
<path d="M104500 70500
L78500 70500
" />
<path d="M33000 64500
L33000 42500
" />
<path d="M49500 64500
L33000 64500
" />
<path d="M49500 42500
L49500 64500
" />
<path d="M33000 42500
L49500 42500
" />
</g>
<g style="fill:#000000; fill-opacity:0.0; 
stroke:#000000; stroke-width:47.2441; stroke-opacity:1; 
stroke-linecap:round; stroke-linejoin:round;">
<path d="M38877 55917
L38877 56901
" />
<path d="M39862 55917
L38877 55917
" />
<path d="M42677 58082
L40984 58082
" />
<path d="M42677 56921
L42677 58082
" />
<path d="M42972 56921
L42677 56921
" />
<path d="M39291 58082
L40984 58082
" />
<path d="M39291 56921
L39291 58082
" />
<path d="M38996 56921
L39291 56921
" />
<path d="M42972 56035
L42263 56035
" />
<path d="M42972 56330
L42972 56035
" />
<path d="M42263 56330
L42972 56330
" />
<path d="M42263 56035
L42263 56330
" />
<path d="M39704 56035
L38996 56035
" />
<path d="M39704 56330
L39704 56035
" />
<path d="M38996 56330
L39704 56330
" />
<path d="M38996 56035
L38996 56330
" />
<path d="M41673 56035
L40295 56035
" />
<path d="M41673 56330
L41673 56035
" />
<path d="M40295 56330
L41673 56330
" />
<path d="M40295 56035
L40295 56330
" />
<path d="M42972 56035
L38996 56035
" />
<path d="M42972 58377
L42972 56035
" />
<path d="M38996 58377
L42972 58377
" />
<path d="M38996 56035
L38996 58377
" />
<path d="M85582 23377
L84598 23377
" />
<path d="M85582 24362
L85582 23377
" />
<path d="M83417 26192
L83417 24992
" />
<path d="M84578 26192
L83417 26192
" />
<path d="M84578 26488
L84578 26192
" />
<path d="M83417 23791
L83417 24992
" />
<path d="M84578 23791
L83417 23791
" />
<path d="M84578 23496
L84578 23791
" />
<path d="M85464 26488
L85464 25779
" />
<path d="M85169 26488
L85464 26488
" />
<path d="M85169 25779
L85169 26488
" />
<path d="M85464 25779
L85169 25779
" />
<path d="M85464 24204
L85464 23496
" />
<path d="M85169 24204
L85464 24204
" />
<path d="M85169 23496
L85169 24204
" />
<path d="M85464 23496
L85169 23496
" />
<path d="M85464 25188
L85464 24795
" />
<path d="M85169 25188
L85464 25188
" />
<path d="M85169 24795
L85169 25188
" />
<path d="M85464 24795
L85169 24795
" />
<path d="M85464 26488
L85464 23496
" />
<path d="M83122 26488
L85464 26488
" />
<path d="M83122 23496
L83122 26488
" />
<path d="M85464 23496
L83122 23496
" />
<path d="M82409 16133
L80590 16133
" />
<path d="M80590 16133
L80590 20866
" />
<path d="M80590 20866
L82409 20866
" />
<path d="M82409 20866
L82409 16133
" />
<path d="M81500 16043
L81500 16133
" />
<path d="M81500 20956
L81500 20866
" />
<path d="M89377 50917
L89377 51901
" />
<path d="M90362 50917
L89377 50917
" />
<path d="M93177 53082
L91484 53082
" />
<path d="M93177 51921
L93177 53082
" />
<path d="M93472 51921
L93177 51921
" />
<path d="M89791 53082
L91484 53082
" />
<path d="M89791 51921
L89791 53082
" />
<path d="M89496 51921
L89791 51921
" />
<path d="M93472 51035
L92763 51035
" />
<path d="M93472 51330
L93472 51035
" />
<path d="M92763 51330
L93472 51330
" />
<path d="M92763 51035
L92763 51330
" />
<path d="M90204 51035
L89496 51035
" />
<path d="M90204 51330
L90204 51035
" />
<path d="M89496 51330
L90204 51330
" />
<path d="M89496 51035
L89496 51330
" />
<path d="M92173 51035
L90795 51035
" />
<path d="M92173 51330
L92173 51035
" />
<path d="M90795 51330
L92173 51330
" />
<path d="M90795 51035
L90795 51330
" />
<path d="M93472 51035
L89496 51035
" />
<path d="M93472 53377
L93472 51035
" />
<path d="M89496 53377
L93472 53377
" />
<path d="M89496 51035
L89496 53377
" />
<path d="M93503 48964
L93503 46622
" />
<path d="M93503 46622
L89527 46622
" />
<path d="M89527 46622
L89527 48964
" />
<path d="M89527 48964
L93503 48964
" />
<path d="M92204 48964
L92204 48669
" />
<path d="M92204 48669
L90826 48669
" />
<path d="M90826 48669
L90826 48964
" />
<path d="M90826 48964
L92204 48964
" />
<path d="M93503 48964
L93503 48669
" />
<path d="M93503 48669
L92795 48669
" />
<path d="M92795 48669
L92795 48964
" />
<path d="M92795 48964
L93503 48964
" />
<path d="M90236 48964
L90236 48669
" />
<path d="M90236 48669
L89527 48669
" />
<path d="M89527 48669
L89527 48964
" />
<path d="M89527 48964
L90236 48964
" />
<path d="M93503 48078
L93208 48078
" />
<path d="M93208 48078
L93208 46917
" />
<path d="M93208 46917
L91515 46917
" />
<path d="M89527 48078
L89822 48078
" />
<path d="M89822 48078
L89822 46917
" />
<path d="M89822 46917
L91515 46917
" />
<path d="M92637 49082
L93622 49082
" />
<path d="M93622 49082
L93622 48098
" />
<path d="M82917 20622
L83901 20622
" />
<path d="M82917 19637
L82917 20622
" />
<path d="M85082 16822
L85082 18515
" />
<path d="M83921 16822
L85082 16822
" />
<path d="M83921 16527
L83921 16822
" />
<path d="M85082 20208
L85082 18515
" />
<path d="M83921 20208
L85082 20208
" />
<path d="M83921 20503
L83921 20208
" />
<path d="M83035 16527
L83035 17236
" />
<path d="M83330 16527
L83035 16527
" />
<path d="M83330 17236
L83330 16527
" />
<path d="M83035 17236
L83330 17236
" />
<path d="M83035 19795
L83035 20503
" />
<path d="M83330 19795
L83035 19795
" />
<path d="M83330 20503
L83330 19795
" />
<path d="M83035 20503
L83330 20503
" />
<path d="M83035 17826
L83035 19204
" />
<path d="M83330 17826
L83035 17826
" />
<path d="M83330 19204
L83330 17826
" />
<path d="M83035 19204
L83330 19204
" />
<path d="M83035 16527
L83035 20503
" />
<path d="M85377 16527
L83035 16527
" />
<path d="M85377 20503
L85377 16527
" />
<path d="M83035 20503
L85377 20503
" />
<path d="M50464 16496
L48122 16496
" />
<path d="M48122 16496
L48122 20472
" />
<path d="M48122 20472
L50464 20472
" />
<path d="M50464 20472
L50464 16496
" />
<path d="M50464 17795
L50169 17795
" />
<path d="M50169 17795
L50169 19173
" />
<path d="M50169 19173
L50464 19173
" />
<path d="M50464 19173
L50464 17795
" />
<path d="M50464 16496
L50169 16496
" />
<path d="M50169 16496
L50169 17204
" />
<path d="M50169 17204
L50464 17204
" />
<path d="M50464 17204
L50464 16496
" />
<path d="M50464 19763
L50169 19763
" />
<path d="M50169 19763
L50169 20472
" />
<path d="M50169 20472
L50464 20472
" />
<path d="M50464 20472
L50464 19763
" />
<path d="M49578 16496
L49578 16791
" />
<path d="M49578 16791
L48417 16791
" />
<path d="M48417 16791
L48417 18484
" />
<path d="M49578 20472
L49578 20177
" />
<path d="M49578 20177
L48417 20177
" />
<path d="M48417 20177
L48417 18484
" />
<path d="M50582 17362
L50582 16377
" />
<path d="M50582 16377
L49598 16377
" />
<path d="M68401 8181
L68401 17677
" />
<path d="M65598 8181
L65598 17677
" />
<path d="M68401 8181
L67549 8181
" />
<path d="M66450 8181
L65598 8181
" />
<path d="M68401 17677
L67549 17677
" />
<path d="M66450 17677
L65598 17677
" />
<path d="M66450 28677
L65598 28677
" />
<path d="M68401 28677
L67549 28677
" />
<path d="M66450 19181
L65598 19181
" />
<path d="M68401 19181
L67549 19181
" />
<path d="M65598 19181
L65598 28677
" />
<path d="M68401 19181
L68401 28677
" />
<path d="M71401 8181
L71401 17677
" />
<path d="M68598 8181
L68598 17677
" />
<path d="M71401 8181
L70549 8181
" />
<path d="M69450 8181
L68598 8181
" />
<path d="M71401 17677
L70549 17677
" />
<path d="M69450 17677
L68598 17677
" />
<path d="M69450 28677
L68598 28677
" />
<path d="M71401 28677
L70549 28677
" />
<path d="M69450 19181
L68598 19181
" />
<path d="M71401 19181
L70549 19181
" />
<path d="M68598 19181
L68598 28677
" />
<path d="M71401 19181
L71401 28677
" />
<path d="M74401 8181
L74401 17677
" />
<path d="M71598 8181
L71598 17677
" />
<path d="M74401 8181
L73549 8181
" />
<path d="M72450 8181
L71598 8181
" />
<path d="M74401 17677
L73549 17677
" />
<path d="M72450 17677
L71598 17677
" />
<path d="M72450 28677
L71598 28677
" />
<path d="M74401 28677
L73549 28677
" />
<path d="M72450 19181
L71598 19181
" />
<path d="M74401 19181
L73549 19181
" />
<path d="M71598 19181
L71598 28677
" />
<path d="M74401 19181
L74401 28677
" />
<path d="M33917 52122
L34901 52122
" />
<path d="M33917 51137
L33917 52122
" />
<path d="M36082 49307
L36082 50507
" />
<path d="M34921 49307
L36082 49307
" />
<path d="M34921 49011
L34921 49307
" />
<path d="M36082 51708
L36082 50507
" />
<path d="M34921 51708
L36082 51708
" />
<path d="M34921 52003
L34921 51708
" />
<path d="M34035 49011
L34035 49720
" />
<path d="M34330 49011
L34035 49011
" />
<path d="M34330 49720
L34330 49011
" />
<path d="M34035 49720
L34330 49720
" />
<path d="M34035 51295
L34035 52003
" />
<path d="M34330 51295
L34035 51295
" />
<path d="M34330 52003
L34330 51295
" />
<path d="M34035 52003
L34330 52003
" />
<path d="M34035 50311
L34035 50704
" />
<path d="M34330 50311
L34035 50311
" />
<path d="M34330 50704
L34330 50311
" />
<path d="M34035 50704
L34330 50704
" />
<path d="M34035 49011
L34035 52003
" />
<path d="M36377 49011
L34035 49011
" />
<path d="M36377 52003
L36377 49011
" />
<path d="M34035 52003
L36377 52003
" />
<path d="M33917 48622
L34901 48622
" />
<path d="M33917 47637
L33917 48622
" />
<path d="M36082 45807
L36082 47007
" />
<path d="M34921 45807
L36082 45807
" />
<path d="M34921 45511
L34921 45807
" />
<path d="M36082 48208
L36082 47007
" />
<path d="M34921 48208
L36082 48208
" />
<path d="M34921 48503
L34921 48208
" />
<path d="M34035 45511
L34035 46220
" />
<path d="M34330 45511
L34035 45511
" />
<path d="M34330 46220
L34330 45511
" />
<path d="M34035 46220
L34330 46220
" />
<path d="M34035 47795
L34035 48503
" />
<path d="M34330 47795
L34035 47795
" />
<path d="M34330 48503
L34330 47795
" />
<path d="M34035 48503
L34330 48503
" />
<path d="M34035 46811
L34035 47204
" />
<path d="M34330 46811
L34035 46811
" />
<path d="M34330 47204
L34330 46811
" />
<path d="M34035 47204
L34330 47204
" />
<path d="M34035 45511
L34035 48503
" />
<path d="M36377 45511
L34035 45511
" />
<path d="M36377 48503
L36377 45511
" />
<path d="M34035 48503
L36377 48503
" />
<path d="M36464 52496
L34122 52496
" />
<path d="M34122 52496
L34122 55488
" />
<path d="M34122 55488
L36464 55488
" />
<path d="M36464 55488
L36464 52496
" />
<path d="M36464 53795
L36169 53795
" />
<path d="M36169 53795
L36169 54188
" />
<path d="M36169 54188
L36464 54188
" />
<path d="M36464 54188
L36464 53795
" />
<path d="M36464 52496
L36169 52496
" />
<path d="M36169 52496
L36169 53204
" />
<path d="M36169 53204
L36464 53204
" />
<path d="M36464 53204
L36464 52496
" />
<path d="M36464 54779
L36169 54779
" />
<path d="M36169 54779
L36169 55488
" />
<path d="M36169 55488
L36464 55488
" />
<path d="M36464 55488
L36464 54779
" />
<path d="M35578 52496
L35578 52791
" />
<path d="M35578 52791
L34417 52791
" />
<path d="M34417 52791
L34417 53992
" />
<path d="M35578 55488
L35578 55192
" />
<path d="M35578 55192
L34417 55192
" />
<path d="M34417 55192
L34417 53992
" />
<path d="M36582 53362
L36582 52377
" />
<path d="M36582 52377
L35598 52377
" />
<path d="M94003 66464
L94003 64122
" />
<path d="M94003 64122
L89043 64122
" />
<path d="M89043 64122
L89043 66464
" />
<path d="M89043 66464
L94003 66464
" />
<path d="M92704 66464
L92704 66169
" />
<path d="M92704 66169
L90342 66169
" />
<path d="M90342 66169
L90342 66464
" />
<path d="M90342 66464
L92704 66464
" />
<path d="M94003 66464
L94003 66169
" />
<path d="M94003 66169
L93295 66169
" />
<path d="M93295 66169
L93295 66464
" />
<path d="M93295 66464
L94003 66464
" />
<path d="M89751 66464
L89751 66169
" />
<path d="M89751 66169
L89043 66169
" />
<path d="M89043 66169
L89043 66464
" />
<path d="M89043 66464
L89751 66464
" />
<path d="M94003 65578
L93708 65578
" />
<path d="M93708 65578
L93708 64417
" />
<path d="M93708 64417
L91523 64417
" />
<path d="M89043 65578
L89338 65578
" />
<path d="M89338 65578
L89338 64417
" />
<path d="M89338 64417
L91523 64417
" />
<path d="M93137 66582
L94122 66582
" />
<path d="M94122 66582
L94122 65598
" />
<path d="M93003 69464
L93003 67122
" />
<path d="M93003 67122
L90011 67122
" />
<path d="M90011 67122
L90011 69464
" />
<path d="M90011 69464
L93003 69464
" />
<path d="M91704 69464
L91704 69169
" />
<path d="M91704 69169
L91311 69169
" />
<path d="M91311 69169
L91311 69464
" />
<path d="M91311 69464
L91704 69464
" />
<path d="M93003 69464
L93003 69169
" />
<path d="M93003 69169
L92295 69169
" />
<path d="M92295 69169
L92295 69464
" />
<path d="M92295 69464
L93003 69464
" />
<path d="M90720 69464
L90720 69169
" />
<path d="M90720 69169
L90011 69169
" />
<path d="M90011 69169
L90011 69464
" />
<path d="M90011 69464
L90720 69464
" />
<path d="M93003 68578
L92708 68578
" />
<path d="M92708 68578
L92708 67417
" />
<path d="M92708 67417
L91507 67417
" />
<path d="M90011 68578
L90307 68578
" />
<path d="M90307 68578
L90307 67417
" />
<path d="M90307 67417
L91507 67417
" />
<path d="M92137 69582
L93122 69582
" />
<path d="M93122 69582
L93122 68598
" />
<path d="M89500 55385
L89500 55736
" />
<path d="M89500 58614
L89500 58263
" />
<path d="M88984 55736
L88984 58263
" />
<path d="M90015 55736
L88984 55736
" />
<path d="M90015 58263
L90015 55736
" />
<path d="M88984 58263
L90015 58263
" />
<path d="M89885 60000
L90236 60000
" />
<path d="M93114 60000
L92763 60000
" />
<path d="M90236 60515
L92763 60515
" />
<path d="M90236 59484
L90236 60515
" />
<path d="M92763 59484
L90236 59484
" />
<path d="M92763 60515
L92763 59484
" />
<path d="M94015 55736
L92984 55736
" />
<path d="M92984 55736
L92984 58263
" />
<path d="M92984 58263
L94015 58263
" />
<path d="M94015 58263
L94015 55736
" />
<path d="M93500 55385
L93500 55736
" />
<path d="M93500 58614
L93500 58263
" />
<path d="M75500 12114
L75500 11763
" />
<path d="M75500 8885
L75500 9236
" />
<path d="M76015 11763
L76015 9236
" />
<path d="M74984 11763
L76015 11763
" />
<path d="M74984 9236
L74984 11763
" />
<path d="M76015 9236
L74984 9236
" />
<path d="M76015 14236
L74984 14236
" />
<path d="M74984 14236
L74984 16763
" />
<path d="M74984 16763
L76015 16763
" />
<path d="M76015 16763
L76015 14236
" />
<path d="M75500 13885
L75500 14236
" />
<path d="M75500 17114
L75500 16763
" />
<path d="M75500 22114
L75500 21763
" />
<path d="M75500 18885
L75500 19236
" />
<path d="M76015 21763
L76015 19236
" />
<path d="M74984 21763
L76015 21763
" />
<path d="M74984 19236
L74984 21763
" />
<path d="M76015 19236
L74984 19236
" />
<path d="M76015 24236
L74984 24236
" />
<path d="M74984 24236
L74984 26763
" />
<path d="M74984 26763
L76015 26763
" />
<path d="M76015 26763
L76015 24236
" />
<path d="M75500 23885
L75500 24236
" />
<path d="M75500 27114
L75500 26763
" />
<path d="M77500 13956
L77500 13866
" />
<path d="M77500 9043
L77500 9133
" />
<path d="M78409 13866
L78409 9133
" />
<path d="M76590 13866
L78409 13866
" />
<path d="M76590 9133
L76590 13866
" />
<path d="M78409 9133
L76590 9133
" />
<path d="M78409 16133
L76590 16133
" />
<path d="M76590 16133
L76590 20866
" />
<path d="M76590 20866
L78409 20866
" />
<path d="M78409 20866
L78409 16133
" />
<path d="M77500 16043
L77500 16133
" />
<path d="M77500 20956
L77500 20866
" />
<path d="M77500 27956
L77500 27866
" />
<path d="M77500 23043
L77500 23133
" />
<path d="M78409 27866
L78409 23133
" />
<path d="M76590 27866
L78409 27866
" />
<path d="M76590 23133
L76590 27866
" />
<path d="M78409 23133
L76590 23133
" />
<path d="M79500 13956
L79500 13866
" />
<path d="M79500 9043
L79500 9133
" />
<path d="M80409 13866
L80409 9133
" />
<path d="M78590 13866
L80409 13866
" />
<path d="M78590 9133
L78590 13866
" />
<path d="M80409 9133
L78590 9133
" />
<path d="M79500 20956
L79500 20866
" />
<path d="M79500 16043
L79500 16133
" />
<path d="M80409 20866
L80409 16133
" />
<path d="M78590 20866
L80409 20866
" />
<path d="M78590 16133
L78590 20866
" />
<path d="M80409 16133
L78590 16133
" />
<path d="M80409 23133
L78590 23133
" />
<path d="M78590 23133
L78590 27866
" />
<path d="M78590 27866
L80409 27866
" />
<path d="M80409 27866
L80409 23133
" />
<path d="M79500 23043
L79500 23133
" />
<path d="M79500 27956
L79500 27866
" />
<path d="M81500 13956
L81500 13866
" />
<path d="M81500 9043
L81500 9133
" />
<path d="M82409 13866
L82409 9133
" />
<path d="M80590 13866
L82409 13866
" />
<path d="M80590 9133
L80590 13866
" />
<path d="M82409 9133
L80590 9133
" />
<path d="M82409 23133
L80590 23133
" />
<path d="M80590 23133
L80590 27866
" />
<path d="M80590 27866
L82409 27866
" />
<path d="M82409 27866
L82409 23133
" />
<path d="M81500 23043
L81500 23133
" />
<path d="M81500 27956
L81500 27866
" />
<path d="M44476 43476
L45000 43476
" />
<path d="M44476 44000
L44476 43476
" />
<path d="M45500 43476
L46523 43476
" />
<path d="M45500 44500
L45500 43476
" />
<path d="M44476 44500
L45500 44500
" />
<path d="M46523 43476
L46523 51523
" />
<path d="M44476 44500
L44476 51523
" />
<path d="M44476 51523
L46523 51523
" />
<path d="M42216 60055
L42216 58944
" />
<path d="M39925 59500
L40452 59500
" />
<path d="M43074 59500
L42547 59500
" />
<path d="M40452 60055
L42547 60055
" />
<path d="M40452 58944
L40452 60055
" />
<path d="M42547 58944
L40452 58944
" />
<path d="M42547 60055
L42547 58944
" />
<path d="M43161 62500
L42893 62500
" />
<circle cx="43500" cy="62500" r="338.583" /> 
<path d="M44023 60476
L44023 61000
" />
<path d="M43500 60476
L44023 60476
" />
<path d="M43000 60476
L43000 61523
" />
<path d="M43000 61523
L41976 61523
" />
<path d="M43000 60476
L41976 60476
" />
<path d="M41976 60476
L41976 61523
" />
<g >
</g>
<g >
</g>
<g >
</g>
<g >
</g>
<g >
</g>
<g >
</g>
<g >
</g>
<g >
</g>
<g >
</g>
<g >
</g>
<g >
</g>
<g >
</g>
<g >
</g>
<g >
</g>
<g >
</g>
<g >
</g>
<g >
</g>
<g >
</g>
<g >
</g>
<g >
</g>
<g >
</g>
<g >
</g>
<g >
</g>
<g >
</g>
<g >
</g>
<g >
</g>
<g >
</g>
<g >
</g>
<g >
</g>
<g >
</g>
<g >
</g>
<g >
</g>
<g >
</g>
<g >
</g>
<g >
</g>
<g >
</g>
<g >
</g>
<g >
</g>
<g >
</g>
<g >
</g>
<g >
</g>
<g >
</g>
<g >
</g>
<g >
</g>
<g >
</g>
<g >
</g>
<g >
</g>
<g >
</g>
<g >
</g>
<g >
</g>
<g >
</g>
<g >
</g>
<g >
</g>
<g >
</g>
<g >
</g>
<g >
</g>
<g >
</g>
<g >
</g>
<g >
</g>
<g >
</g>
<g >
</g>
<g >
</g>
<g >
</g>
<g >
</g>
<g >
</g>
<g >
</g>
<g >
</g>
<g >
</g>
<g >
</g>
<g >
</g>
<g >
</g>
<g >
</g>
<g >
</g>
<g >
</g>
<g >
</g>
<g >
</g>
<g >
</g>
</g>
<g style="fill:#000000; fill-opacity:0.0; 
stroke:#000000; stroke-width:47.2441; stroke-opacity:1; 
stroke-linecap:round; stroke-linejoin:round;">
</g>
<g style="fill:#000000; fill-opacity:0.0; 
stroke:#000000; stroke-width:59.0551; stroke-opacity:1; 
stroke-linecap:round; stroke-linejoin:round;">
<path d="M33975 61536
L33843 61348
" />
<path d="M33750 61536
L33750 61142
L33900 61142
L33937 61161
L33956 61180
L33975 61217
L33975 61273
L33956 61311
L33937 61330
L33900 61348
L33750 61348
" />
<path d="M34143 61330
L34275 61330
" />
<path d="M34331 61536
L34143 61536
L34143 61142
L34331 61142
" />
<path d="M34631 61330
L34500 61330
" />
<path d="M34500 61536
L34500 61142
L34687 61142
" />
<path d="M34893 61142
L34893 61236
" />
<path d="M34799 61198
L34893 61236
L34987 61198
" />
<path d="M34837 61311
L34893 61236
L34949 61311
" />
<path d="M35193 61142
L35193 61236
" />
<path d="M35099 61198
L35193 61236
L35287 61198
" />
<path d="M35137 61311
L35193 61236
L35249 61311
" />
<path d="M47475 61536
L47343 61348
" />
<path d="M47250 61536
L47250 61142
L47400 61142
L47437 61161
L47456 61180
L47475 61217
L47475 61273
L47456 61311
L47437 61330
L47400 61348
L47250 61348
" />
<path d="M47643 61330
L47775 61330
" />
<path d="M47831 61536
L47643 61536
L47643 61142
L47831 61142
" />
<path d="M48131 61330
L48000 61330
" />
<path d="M48000 61536
L48000 61142
L48187 61142
" />
<path d="M48393 61142
L48393 61236
" />
<path d="M48299 61198
L48393 61236
L48487 61198
" />
<path d="M48337 61311
L48393 61236
L48449 61311
" />
<path d="M48693 61142
L48693 61236
" />
<path d="M48599 61198
L48693 61236
L48787 61198
" />
<path d="M48637 61311
L48693 61236
L48749 61311
" />
<path d="M47475 43036
L47343 42848
" />
<path d="M47250 43036
L47250 42642
L47400 42642
L47437 42661
L47456 42680
L47475 42717
L47475 42773
L47456 42811
L47437 42830
L47400 42848
L47250 42848
" />
<path d="M47643 42830
L47775 42830
" />
<path d="M47831 43036
L47643 43036
L47643 42642
L47831 42642
" />
<path d="M48131 42830
L48000 42830
" />
<path d="M48000 43036
L48000 42642
L48187 42642
" />
<path d="M48393 42642
L48393 42736
" />
<path d="M48299 42698
L48393 42736
L48487 42698
" />
<path d="M48337 42811
L48393 42736
L48449 42811
" />
<path d="M48693 42642
L48693 42736
" />
<path d="M48599 42698
L48693 42736
L48787 42698
" />
<path d="M48637 42811
L48693 42736
L48749 42811
" />
<path d="M33975 43036
L33843 42848
" />
<path d="M33750 43036
L33750 42642
L33900 42642
L33937 42661
L33956 42680
L33975 42717
L33975 42773
L33956 42811
L33937 42830
L33900 42848
L33750 42848
" />
<path d="M34143 42830
L34275 42830
" />
<path d="M34331 43036
L34143 43036
L34143 42642
L34331 42642
" />
<path d="M34631 42830
L34500 42830
" />
<path d="M34500 43036
L34500 42642
L34687 42642
" />
<path d="M34893 42642
L34893 42736
" />
<path d="M34799 42698
L34893 42736
L34987 42698
" />
<path d="M34837 42811
L34893 42736
L34949 42811
" />
<path d="M35193 42642
L35193 42736
" />
<path d="M35099 42698
L35193 42736
L35287 42698
" />
<path d="M35137 42811
L35193 42736
L35249 42811
" />
<path d="M102475 41036
L102343 40848
" />
<path d="M102250 41036
L102250 40642
L102400 40642
L102437 40661
L102456 40680
L102475 40717
L102475 40773
L102456 40811
L102437 40830
L102400 40848
L102250 40848
" />
<path d="M102643 40830
L102775 40830
" />
<path d="M102831 41036
L102643 41036
L102643 40642
L102831 40642
" />
<path d="M103131 40830
L103000 40830
" />
<path d="M103000 41036
L103000 40642
L103187 40642
" />
<path d="M103393 40642
L103393 40736
" />
<path d="M103299 40698
L103393 40736
L103487 40698
" />
<path d="M103337 40811
L103393 40736
L103449 40811
" />
<path d="M103693 40642
L103693 40736
" />
<path d="M103599 40698
L103693 40736
L103787 40698
" />
<path d="M103637 40811
L103693 40736
L103749 40811
" />
<path d="M102475 68036
L102343 67848
" />
<path d="M102250 68036
L102250 67642
L102400 67642
L102437 67661
L102456 67680
L102475 67717
L102475 67773
L102456 67811
L102437 67830
L102400 67848
L102250 67848
" />
<path d="M102643 67830
L102775 67830
" />
<path d="M102831 68036
L102643 68036
L102643 67642
L102831 67642
" />
<path d="M103131 67830
L103000 67830
" />
<path d="M103000 68036
L103000 67642
L103187 67642
" />
<path d="M103393 67642
L103393 67736
" />
<path d="M103299 67698
L103393 67736
L103487 67698
" />
<path d="M103337 67811
L103393 67736
L103449 67811
" />
<path d="M103693 67642
L103693 67736
" />
<path d="M103599 67698
L103693 67736
L103787 67698
" />
<path d="M103637 67811
L103693 67736
L103749 67811
" />
<path d="M79475 68036
L79343 67848
" />
<path d="M79250 68036
L79250 67642
L79400 67642
L79437 67661
L79456 67680
L79475 67717
L79475 67773
L79456 67811
L79437 67830
L79400 67848
L79250 67848
" />
<path d="M79643 67830
L79775 67830
" />
<path d="M79831 68036
L79643 68036
L79643 67642
L79831 67642
" />
<path d="M80131 67830
L80000 67830
" />
<path d="M80000 68036
L80000 67642
L80187 67642
" />
<path d="M80393 67642
L80393 67736
" />
<path d="M80299 67698
L80393 67736
L80487 67698
" />
<path d="M80337 67811
L80393 67736
L80449 67811
" />
<path d="M80693 67642
L80693 67736
" />
<path d="M80599 67698
L80693 67736
L80787 67698
" />
<path d="M80637 67811
L80693 67736
L80749 67811
" />
<path d="M79475 41036
L79343 40848
" />
<path d="M79250 41036
L79250 40642
L79400 40642
L79437 40661
L79456 40680
L79475 40717
L79475 40773
L79456 40811
L79437 40830
L79400 40848
L79250 40848
" />
<path d="M79643 40830
L79775 40830
" />
<path d="M79831 41036
L79643 41036
L79643 40642
L79831 40642
" />
<path d="M80131 40830
L80000 40830
" />
<path d="M80000 41036
L80000 40642
L80187 40642
" />
<path d="M80393 40642
L80393 40736
" />
<path d="M80299 40698
L80393 40736
L80487 40698
" />
<path d="M80337 40811
L80393 40736
L80449 40811
" />
<path d="M80693 40642
L80693 40736
" />
<path d="M80599 40698
L80693 40736
L80787 40698
" />
<path d="M80637 40811
L80693 40736
L80749 40811
" />
<path d="M84975 27536
L84843 27348
" />
<path d="M84750 27536
L84750 27142
L84900 27142
L84937 27161
L84956 27180
L84975 27217
L84975 27273
L84956 27311
L84937 27330
L84900 27348
L84750 27348
" />
<path d="M85143 27330
L85275 27330
" />
<path d="M85331 27536
L85143 27536
L85143 27142
L85331 27142
" />
<path d="M85631 27330
L85500 27330
" />
<path d="M85500 27536
L85500 27142
L85687 27142
" />
<path d="M85893 27142
L85893 27236
" />
<path d="M85799 27198
L85893 27236
L85987 27198
" />
<path d="M85837 27311
L85893 27236
L85949 27311
" />
<path d="M86193 27142
L86193 27236
" />
<path d="M86099 27198
L86193 27236
L86287 27198
" />
<path d="M86137 27311
L86193 27236
L86249 27311
" />
<path d="M84975 5536
L84843 5348
" />
<path d="M84750 5536
L84750 5142
L84900 5142
L84937 5161
L84956 5180
L84975 5217
L84975 5273
L84956 5311
L84937 5330
L84900 5348
L84750 5348
" />
<path d="M85143 5330
L85275 5330
" />
<path d="M85331 5536
L85143 5536
L85143 5142
L85331 5142
" />
<path d="M85631 5330
L85500 5330
" />
<path d="M85500 5536
L85500 5142
L85687 5142
" />
<path d="M85893 5142
L85893 5236
" />
<path d="M85799 5198
L85893 5236
L85987 5198
" />
<path d="M85837 5311
L85893 5236
L85949 5311
" />
<path d="M86193 5142
L86193 5236
" />
<path d="M86099 5198
L86193 5236
L86287 5198
" />
<path d="M86137 5311
L86193 5236
L86249 5311
" />
<path d="M43975 27536
L43843 27348
" />
<path d="M43750 27536
L43750 27142
L43900 27142
L43937 27161
L43956 27180
L43975 27217
L43975 27273
L43956 27311
L43937 27330
L43900 27348
L43750 27348
" />
<path d="M44143 27330
L44275 27330
" />
<path d="M44331 27536
L44143 27536
L44143 27142
L44331 27142
" />
<path d="M44631 27330
L44500 27330
" />
<path d="M44500 27536
L44500 27142
L44687 27142
" />
<path d="M44893 27142
L44893 27236
" />
<path d="M44799 27198
L44893 27236
L44987 27198
" />
<path d="M44837 27311
L44893 27236
L44949 27311
" />
<path d="M45193 27142
L45193 27236
" />
<path d="M45099 27198
L45193 27236
L45287 27198
" />
<path d="M45137 27311
L45193 27236
L45249 27311
" />
<path d="M43975 5536
L43843 5348
" />
<path d="M43750 5536
L43750 5142
L43900 5142
L43937 5161
L43956 5180
L43975 5217
L43975 5273
L43956 5311
L43937 5330
L43900 5348
L43750 5348
" />
<path d="M44143 5330
L44275 5330
" />
<path d="M44331 5536
L44143 5536
L44143 5142
L44331 5142
" />
<path d="M44631 5330
L44500 5330
" />
<path d="M44500 5536
L44500 5142
L44687 5142
" />
<path d="M44893 5142
L44893 5236
" />
<path d="M44799 5198
L44893 5236
L44987 5198
" />
<path d="M44837 5311
L44893 5236
L44949 5311
" />
<path d="M45193 5142
L45193 5236
" />
<path d="M45099 5198
L45193 5236
L45287 5198
" />
<path d="M45137 5311
L45193 5236
L45249 5311
" />
<path d="M37551 57721
L37551 57852
" />
<path d="M37758 57852
L37364 57852
L37364 57664
" />
<path d="M37758 57308
L37758 57533
" />
<path d="M37758 57421
L37364 57421
L37420 57458
L37458 57496
L37476 57533
" />
<path d="M40853 55406
L40853 55687
L40834 55743
L40796 55781
L40740 55800
L40703 55800
" />
<path d="M41246 55800
L41021 55800
" />
<path d="M41134 55800
L41134 55406
L41096 55462
L41059 55500
L41021 55518
" />
<path d="M85662 25310
L85943 25310
L85999 25329
L86037 25367
L86056 25423
L86056 25460
" />
<path d="M86056 24917
L86056 25142
" />
<path d="M86056 25029
L85662 25029
L85718 25067
L85756 25104
L85774 25142
" />
<path d="M85699 24767
L85681 24748
L85662 24710
L85662 24617
L85681 24579
L85699 24560
L85737 24542
L85774 24542
L85831 24560
L86056 24785
L86056 24542
" />
<path d="M82981 18753
L82793 18884
" />
<path d="M82981 18978
L82587 18978
L82587 18828
L82606 18790
L82625 18771
L82662 18753
L82718 18753
L82756 18771
L82775 18790
L82793 18828
L82793 18978
" />
<path d="M82625 18603
L82606 18584
L82587 18546
L82587 18453
L82606 18415
L82625 18396
L82662 18378
L82700 18378
L82756 18396
L82981 18621
L82981 18378
" />
<path d="M82587 18134
L82587 18096
L82606 18059
L82625 18040
L82662 18021
L82737 18003
L82831 18003
L82906 18021
L82943 18040
L82962 18059
L82981 18096
L82981 18134
L82962 18171
L82943 18190
L82906 18209
L82831 18228
L82737 18228
L82662 18209
L82625 18190
L82606 18171
L82587 18134
" />
<path d="M91353 50406
L91353 50687
L91334 50743
L91296 50781
L91240 50800
L91203 50800
" />
<path d="M91727 50406
L91540 50406
L91521 50593
L91540 50575
L91577 50556
L91671 50556
L91709 50575
L91727 50593
L91746 50631
L91746 50725
L91727 50762
L91709 50781
L91671 50800
L91577 50800
L91540 50781
L91521 50762
" />
<path d="M91384 49162
L91384 49443
L91365 49499
L91328 49537
L91272 49556
L91234 49556
" />
<path d="M91534 49162
L91796 49162
L91628 49556
" />
<path d="M82406 18834
L82687 18834
L82743 18853
L82781 18890
L82800 18946
L82800 18984
" />
<path d="M82800 18440
L82800 18665
" />
<path d="M82800 18553
L82406 18553
L82462 18590
L82500 18628
L82518 18665
" />
<path d="M82800 18065
L82800 18290
" />
<path d="M82800 18178
L82406 18178
L82462 18215
L82500 18253
L82518 18290
" />
<path d="M50662 18802
L50943 18802
L50999 18821
L51037 18859
L51056 18915
L51056 18952
" />
<path d="M51056 18409
L51056 18634
" />
<path d="M51056 18521
L50662 18521
L50718 18559
L50756 18596
L50774 18634
" />
<path d="M50662 18165
L50662 18128
L50681 18090
L50699 18071
L50737 18053
L50812 18034
L50906 18034
L50981 18053
L51018 18071
L51037 18090
L51056 18128
L51056 18165
L51037 18203
L51018 18221
L50981 18240
L50906 18259
L50812 18259
L50737 18240
L50699 18221
L50681 18203
L50662 18165
" />
<path d="M69034 12994
L69053 13013
L69071 13069
L69071 13107
L69053 13163
L69015 13200
L68978 13219
L68903 13238
L68846 13238
L68771 13219
L68734 13200
L68696 13163
L68678 13107
L68678 13069
L68696 13013
L68715 12994
" />
<path d="M68715 12844
L68696 12826
L68678 12788
L68678 12694
L68696 12657
L68715 12638
L68753 12619
L68790 12619
L68846 12638
L69071 12863
L69071 12619
" />
<path d="M69034 23994
L69053 24013
L69071 24069
L69071 24107
L69053 24163
L69015 24200
L68978 24219
L68903 24238
L68846 24238
L68771 24219
L68734 24200
L68696 24163
L68678 24107
L68678 24069
L68696 24013
L68715 23994
" />
<path d="M68678 23863
L68678 23619
L68828 23751
L68828 23694
L68846 23657
L68865 23638
L68903 23619
L68996 23619
L69034 23638
L69053 23657
L69071 23694
L69071 23807
L69053 23844
L69034 23863
" />
<path d="M72034 12994
L72053 13013
L72071 13069
L72071 13107
L72053 13163
L72015 13200
L71978 13219
L71903 13238
L71846 13238
L71771 13219
L71734 13200
L71696 13163
L71678 13107
L71678 13069
L71696 13013
L71715 12994
" />
<path d="M71809 12657
L72071 12657
" />
<path d="M71659 12751
L71940 12844
L71940 12601
" />
<path d="M72034 23994
L72053 24013
L72071 24069
L72071 24107
L72053 24163
L72015 24200
L71978 24219
L71903 24238
L71846 24238
L71771 24219
L71734 24200
L71696 24163
L71678 24107
L71678 24069
L71696 24013
L71715 23994
" />
<path d="M71678 23638
L71678 23826
L71865 23844
L71846 23826
L71828 23788
L71828 23694
L71846 23657
L71865 23638
L71903 23619
L71996 23619
L72034 23638
L72053 23657
L72071 23694
L72071 23788
L72053 23826
L72034 23844
" />
<path d="M75034 12994
L75053 13013
L75071 13069
L75071 13107
L75053 13163
L75015 13200
L74978 13219
L74903 13238
L74846 13238
L74771 13219
L74734 13200
L74696 13163
L74678 13107
L74678 13069
L74696 13013
L74715 12994
" />
<path d="M74678 12657
L74678 12732
L74696 12769
L74715 12788
L74771 12826
L74846 12844
L74996 12844
L75034 12826
L75053 12807
L75071 12769
L75071 12694
L75053 12657
L75034 12638
L74996 12619
L74903 12619
L74865 12638
L74846 12657
L74828 12694
L74828 12769
L74846 12807
L74865 12826
L74903 12844
" />
<path d="M75034 23994
L75053 24013
L75071 24069
L75071 24107
L75053 24163
L75015 24200
L74978 24219
L74903 24238
L74846 24238
L74771 24219
L74734 24200
L74696 24163
L74678 24107
L74678 24069
L74696 24013
L74715 23994
" />
<path d="M74678 23863
L74678 23601
L75071 23769
" />
<path d="M33406 50639
L33687 50639
L33743 50657
L33781 50695
L33800 50751
L33800 50789
" />
<path d="M33443 50470
L33425 50451
L33406 50414
L33406 50320
L33425 50282
L33443 50264
L33481 50245
L33518 50245
L33575 50264
L33800 50489
L33800 50245
" />
<path d="M33406 47139
L33687 47139
L33743 47157
L33781 47195
L33800 47251
L33800 47289
" />
<path d="M33406 46989
L33406 46745
L33556 46876
L33556 46820
L33575 46782
L33593 46764
L33631 46745
L33725 46745
L33762 46764
L33781 46782
L33800 46820
L33800 46932
L33781 46970
L33762 46989
" />
<path d="M36662 54123
L36943 54123
L36999 54142
L37037 54179
L37056 54235
L37056 54273
" />
<path d="M36793 53767
L37056 53767
" />
<path d="M36643 53860
L36924 53954
L36924 53710
" />
<path d="M91392 66662
L91392 66943
L91373 66999
L91336 67037
L91279 67056
L91242 67056
" />
<path d="M91748 66662
L91673 66662
L91636 66681
L91617 66699
L91579 66756
L91561 66831
L91561 66981
L91579 67018
L91598 67037
L91636 67056
L91711 67056
L91748 67037
L91767 67018
L91786 66981
L91786 66887
L91767 66849
L91748 66831
L91711 66812
L91636 66812
L91598 66831
L91579 66849
L91561 66887
" />
<path d="M91376 69662
L91376 69943
L91357 69999
L91320 70037
L91264 70056
L91226 70056
" />
<path d="M91620 69831
L91582 69812
L91564 69793
L91545 69756
L91545 69737
L91564 69699
L91582 69681
L91620 69662
L91695 69662
L91732 69681
L91751 69699
L91770 69737
L91770 69756
L91751 69793
L91732 69812
L91695 69831
L91620 69831
L91582 69849
L91564 69868
L91545 69906
L91545 69981
L91564 70018
L91582 70037
L91620 70056
L91695 70056
L91732 70037
L91751 70018
L91770 69981
L91770 69906
L91751 69868
L91732 69849
L91695 69831
" />
<path d="M88768 57065
L88581 57196
" />
<path d="M88768 57290
L88374 57290
L88374 57140
L88393 57103
L88412 57084
L88449 57065
L88506 57065
L88543 57084
L88562 57103
L88581 57140
L88581 57290
" />
<path d="M88374 56934
L88374 56690
L88524 56821
L88524 56765
L88543 56728
L88562 56709
L88599 56690
L88693 56690
L88731 56709
L88749 56728
L88768 56765
L88768 56878
L88749 56915
L88731 56934
" />
<path d="M91434 61087
L91303 60900
" />
<path d="M91209 61087
L91209 60693
L91359 60693
L91396 60712
L91415 60731
L91434 60768
L91434 60825
L91415 60862
L91396 60881
L91359 60900
L91209 60900
" />
<path d="M91771 60825
L91771 61087
" />
<path d="M91678 60675
L91584 60956
L91828 60956
" />
<path d="M94587 57065
L94400 57196
" />
<path d="M94587 57290
L94193 57290
L94193 57140
L94212 57103
L94231 57084
L94268 57065
L94325 57065
L94362 57084
L94381 57103
L94400 57140
L94400 57290
" />
<path d="M94193 56728
L94193 56803
L94212 56840
L94231 56859
L94287 56896
L94362 56915
L94512 56915
L94550 56896
L94568 56878
L94587 56840
L94587 56765
L94568 56728
L94550 56709
L94512 56690
L94418 56690
L94381 56709
L94362 56728
L94343 56765
L94343 56840
L94362 56878
L94381 56896
L94418 56915
" />
<path d="M76587 10565
L76400 10696
" />
<path d="M76587 10790
L76193 10790
L76193 10640
L76212 10603
L76231 10584
L76268 10565
L76325 10565
L76362 10584
L76381 10603
L76400 10640
L76400 10790
" />
<path d="M76587 10378
L76587 10303
L76568 10265
L76550 10246
L76493 10209
L76418 10190
L76268 10190
L76231 10209
L76212 10228
L76193 10265
L76193 10340
L76212 10378
L76231 10396
L76268 10415
L76362 10415
L76400 10396
L76418 10378
L76437 10340
L76437 10265
L76418 10228
L76400 10209
L76362 10190
" />
<path d="M76587 15753
L76400 15884
" />
<path d="M76587 15978
L76193 15978
L76193 15828
L76212 15790
L76231 15771
L76268 15753
L76325 15753
L76362 15771
L76381 15790
L76400 15828
L76400 15978
" />
<path d="M76587 15378
L76587 15603
" />
<path d="M76587 15490
L76193 15490
L76250 15528
L76287 15565
L76306 15603
" />
<path d="M76193 15134
L76193 15096
L76212 15059
L76231 15040
L76268 15021
L76343 15003
L76437 15003
L76512 15021
L76550 15040
L76568 15059
L76587 15096
L76587 15134
L76568 15171
L76550 15190
L76512 15209
L76437 15228
L76343 15228
L76268 15209
L76231 15190
L76212 15171
L76193 15134
" />
<path d="M76587 20753
L76400 20884
" />
<path d="M76587 20978
L76193 20978
L76193 20828
L76212 20790
L76231 20771
L76268 20753
L76325 20753
L76362 20771
L76381 20790
L76400 20828
L76400 20978
" />
<path d="M76587 20378
L76587 20603
" />
<path d="M76587 20490
L76193 20490
L76250 20528
L76287 20565
L76306 20603
" />
<path d="M76587 20003
L76587 20228
" />
<path d="M76587 20115
L76193 20115
L76250 20153
L76287 20190
L76306 20228
" />
<path d="M76587 25753
L76400 25884
" />
<path d="M76587 25978
L76193 25978
L76193 25828
L76212 25790
L76231 25771
L76268 25753
L76325 25753
L76362 25771
L76381 25790
L76400 25828
L76400 25978
" />
<path d="M76587 25378
L76587 25603
" />
<path d="M76587 25490
L76193 25490
L76250 25528
L76287 25565
L76306 25603
" />
<path d="M76231 25228
L76212 25209
L76193 25171
L76193 25078
L76212 25040
L76231 25021
L76268 25003
L76306 25003
L76362 25021
L76587 25246
L76587 25003
" />
<path d="M78981 11753
L78793 11884
" />
<path d="M78981 11978
L78587 11978
L78587 11828
L78606 11790
L78625 11771
L78662 11753
L78718 11753
L78756 11771
L78775 11790
L78793 11828
L78793 11978
" />
<path d="M78981 11378
L78981 11603
" />
<path d="M78981 11490
L78587 11490
L78643 11528
L78681 11565
L78700 11603
" />
<path d="M78587 11246
L78587 11003
L78737 11134
L78737 11078
L78756 11040
L78775 11021
L78812 11003
L78906 11003
L78943 11021
L78962 11040
L78981 11078
L78981 11190
L78962 11228
L78943 11246
" />
<path d="M78981 18753
L78793 18884
" />
<path d="M78981 18978
L78587 18978
L78587 18828
L78606 18790
L78625 18771
L78662 18753
L78718 18753
L78756 18771
L78775 18790
L78793 18828
L78793 18978
" />
<path d="M78981 18378
L78981 18603
" />
<path d="M78981 18490
L78587 18490
L78643 18528
L78681 18565
L78700 18603
" />
<path d="M78718 18040
L78981 18040
" />
<path d="M78568 18134
L78850 18228
L78850 17984
" />
<path d="M78981 25753
L78793 25884
" />
<path d="M78981 25978
L78587 25978
L78587 25828
L78606 25790
L78625 25771
L78662 25753
L78718 25753
L78756 25771
L78775 25790
L78793 25828
L78793 25978
" />
<path d="M78981 25378
L78981 25603
" />
<path d="M78981 25490
L78587 25490
L78643 25528
L78681 25565
L78700 25603
" />
<path d="M78587 25021
L78587 25209
L78775 25228
L78756 25209
L78737 25171
L78737 25078
L78756 25040
L78775 25021
L78812 25003
L78906 25003
L78943 25021
L78962 25040
L78981 25078
L78981 25171
L78962 25209
L78943 25228
" />
<path d="M80981 11753
L80793 11884
" />
<path d="M80981 11978
L80587 11978
L80587 11828
L80606 11790
L80625 11771
L80662 11753
L80718 11753
L80756 11771
L80775 11790
L80793 11828
L80793 11978
" />
<path d="M80981 11378
L80981 11603
" />
<path d="M80981 11490
L80587 11490
L80643 11528
L80681 11565
L80700 11603
" />
<path d="M80587 11040
L80587 11115
L80606 11153
L80625 11171
L80681 11209
L80756 11228
L80906 11228
L80943 11209
L80962 11190
L80981 11153
L80981 11078
L80962 11040
L80943 11021
L80906 11003
L80812 11003
L80775 11021
L80756 11040
L80737 11078
L80737 11153
L80756 11190
L80775 11209
L80812 11228
" />
<path d="M80981 18753
L80793 18884
" />
<path d="M80981 18978
L80587 18978
L80587 18828
L80606 18790
L80625 18771
L80662 18753
L80718 18753
L80756 18771
L80775 18790
L80793 18828
L80793 18978
" />
<path d="M80981 18378
L80981 18603
" />
<path d="M80981 18490
L80587 18490
L80643 18528
L80681 18565
L80700 18603
" />
<path d="M80587 18246
L80587 17984
L80981 18153
" />
<path d="M80981 25753
L80793 25884
" />
<path d="M80981 25978
L80587 25978
L80587 25828
L80606 25790
L80625 25771
L80662 25753
L80718 25753
L80756 25771
L80775 25790
L80793 25828
L80793 25978
" />
<path d="M80981 25378
L80981 25603
" />
<path d="M80981 25490
L80587 25490
L80643 25528
L80681 25565
L80700 25603
" />
<path d="M80756 25153
L80737 25190
L80718 25209
L80681 25228
L80662 25228
L80625 25209
L80606 25190
L80587 25153
L80587 25078
L80606 25040
L80625 25021
L80662 25003
L80681 25003
L80718 25021
L80737 25040
L80756 25078
L80756 25153
L80775 25190
L80793 25209
L80831 25228
L80906 25228
L80943 25209
L80962 25190
L80981 25153
L80981 25078
L80962 25040
L80943 25021
L80906 25003
L80831 25003
L80793 25021
L80775 25040
L80756 25078
" />
<path d="M82981 11753
L82793 11884
" />
<path d="M82981 11978
L82587 11978
L82587 11828
L82606 11790
L82625 11771
L82662 11753
L82718 11753
L82756 11771
L82775 11790
L82793 11828
L82793 11978
" />
<path d="M82981 11378
L82981 11603
" />
<path d="M82981 11490
L82587 11490
L82643 11528
L82681 11565
L82700 11603
" />
<path d="M82981 11190
L82981 11115
L82962 11078
L82943 11059
L82887 11021
L82812 11003
L82662 11003
L82625 11021
L82606 11040
L82587 11078
L82587 11153
L82606 11190
L82625 11209
L82662 11228
L82756 11228
L82793 11209
L82812 11190
L82831 11153
L82831 11078
L82812 11040
L82793 11021
L82756 11003
" />
<path d="M82981 25753
L82793 25884
" />
<path d="M82981 25978
L82587 25978
L82587 25828
L82606 25790
L82625 25771
L82662 25753
L82718 25753
L82756 25771
L82775 25790
L82793 25828
L82793 25978
" />
<path d="M82625 25603
L82606 25584
L82587 25546
L82587 25453
L82606 25415
L82625 25396
L82662 25378
L82700 25378
L82756 25396
L82981 25621
L82981 25378
" />
<path d="M82981 25003
L82981 25228
" />
<path d="M82981 25115
L82587 25115
L82643 25153
L82681 25190
L82700 25228
" />
<path d="M45368 42867
L45368 43148
L45350 43204
L45312 43242
L45256 43260
L45218 43260
" />
<path d="M45574 43260
L45649 43260
L45687 43242
L45706 43223
L45743 43167
L45762 43092
L45762 42942
L45743 42904
L45724 42885
L45687 42867
L45612 42867
L45574 42885
L45556 42904
L45537 42942
L45537 43035
L45556 43073
L45574 43092
L45612 43110
L45687 43110
L45724 43092
L45743 43073
L45762 43035
" />
<path d="M83193 50499
L82800 50499
" />
<path d="M83193 50274
L82968 50443
" />
<path d="M82800 50274
L83025 50499
" />
<path d="M83193 49899
L83193 50124
" />
<path d="M83193 50011
L82800 50011
L82856 50049
L82893 50086
L82912 50124
" />
<path d="M83193 63499
L82800 63499
" />
<path d="M83193 63274
L82968 63443
" />
<path d="M82800 63274
L83025 63499
" />
<path d="M82837 63124
L82818 63105
L82800 63068
L82800 62974
L82818 62936
L82837 62918
L82875 62899
L82912 62899
L82968 62918
L83193 63143
L83193 62899
" />
<path d="M41662 48581
L41268 48581
" />
<path d="M41662 48356
L41437 48525
" />
<path d="M41268 48356
L41493 48581
" />
<path d="M41268 48225
L41268 47982
L41418 48113
L41418 48056
L41437 48019
L41456 48000
L41493 47982
L41587 47982
L41624 48000
L41643 48019
L41662 48056
L41662 48169
L41643 48206
L41624 48225
" />
<path d="M100162 61081
L99768 61081
" />
<path d="M100162 60856
L99937 61025
" />
<path d="M99768 60856
L99993 61081
" />
<path d="M99768 60500
L99768 60688
L99956 60706
L99937 60688
L99918 60650
L99918 60556
L99937 60519
L99956 60500
L99993 60482
L100087 60482
L100124 60500
L100143 60519
L100162 60556
L100162 60650
L100143 60688
L100124 60706
" />
<path d="M41021 60626
L41021 60233
L41115 60233
L41171 60251
L41209 60289
L41228 60326
L41246 60401
L41246 60458
L41228 60533
L41209 60570
L41171 60608
L41115 60626
L41021 60626
" />
<path d="M41621 60626
L41396 60626
" />
<path d="M41509 60626
L41509 60233
L41471 60289
L41434 60326
L41396 60345
" />
<path d="M41753 60233
L41996 60233
L41865 60383
L41921 60383
L41959 60401
L41978 60420
L41996 60458
L41996 60551
L41978 60589
L41959 60608
L41921 60626
L41809 60626
L41771 60608
L41753 60589
" />
<path d="M42746 63410
L42615 63222
" />
<path d="M42521 63410
L42521 63016
L42671 63016
L42709 63035
L42728 63054
L42746 63091
L42746 63147
L42728 63185
L42709 63204
L42671 63222
L42521 63222
" />
<path d="M42896 63054
L42915 63035
L42953 63016
L43046 63016
L43084 63035
L43103 63054
L43121 63091
L43121 63129
L43103 63185
L42878 63410
L43121 63410
" />
<path d="M43271 63054
L43290 63035
L43328 63016
L43421 63016
L43459 63035
L43478 63054
L43496 63091
L43496 63129
L43478 63185
L43253 63410
L43496 63410
" />
<path d="M44576 61524
L44595 61468
L44595 61374
L44576 61337
L44557 61318
L44520 61299
L44482 61299
L44445 61318
L44426 61337
L44407 61374
L44389 61449
L44370 61487
L44351 61506
L44314 61524
L44276 61524
L44239 61506
L44220 61487
L44201 61449
L44201 61356
L44220 61299
" />
<path d="M44201 61168
L44595 61074
L44314 61000
L44595 60925
L44201 60831
" />
<path d="M44595 60475
L44595 60700
" />
<path d="M44595 60587
L44201 60587
L44257 60625
L44295 60662
L44314 60700
" />
<path d="M100162 48081
L99768 48081
" />
<path d="M100162 47856
L99937 48025
" />
<path d="M99768 47856
L99993 48081
" />
<path d="M99899 47519
L100162 47519
" />
<path d="M99749 47613
L100031 47706
L100031 47463
" />
<g >
</g>
</g> 
</svg>
